<svg width="791" height="791" viewBox="0 0 791 791" fill="none" xmlns="http://www.w3.org/2000/svg">
<path d="M0 678H113V791H0V678Z" fill="#00B2CA"/>
<path d="M169 339H282V452H169V339Z" fill="#00B2CA"/>
<path d="M226 226H339V339H226V226Z" fill="#00B2CA"/>
<path d="M339 0H452V113H339V0Z" fill="#00B2CA"/>
<path d="M56 565H169V735H56V565Z" fill="#00B2CA"/>
<path d="M113 452H226V622H113V452Z" fill="#00B2CA"/>
<path d="M282 113H395V226H282V113Z" fill="#00B2CA"/>
<path d="M791 678H678V791H791V678Z" fill="#00B2CA"/>
<path d="M622 339H509V452H622V339Z" fill="#00B2CA"/>
<path d="M565 226H452V339H565V226Z" fill="#00B2CA"/>
<path d="M452 0H339V113H452V0Z" fill="#00B2CA"/>
<path d="M735 565H622V735H735V565Z" fill="#00B2CA"/>
<path d="M678 452H565V622H678V452Z" fill="#00B2CA"/>
<path d="M509 113H396V226H509V113Z" fill="#00B2CA"/>
<path d="M473.5 113H360.5V226H473.5V113Z" fill="#00B2CA"/>
<path d="M594 452H172.5V565H594V452Z" fill="#00B2CA"/>
</svg>
