
<!-- Generator: visioncortex VTracer 0.6.4 -->
<svg version="1.1" xmlns="http://www.w3.org/2000/svg" viewBox="0 0 300 168" preserveAspectRatio="xMidYMid meet">
<path d="M0 0 C2.416 1.228 2.416 1.228 4.906 2.766 C5.815 3.326 6.724 3.887 7.66 4.465 C8.597 5.054 9.534 5.643 10.5 6.25 C11.437 6.824 12.374 7.397 13.34 7.988 C18.101 10.953 22.27 13.796 26 18 C24.639 22.883 22.46 26.69 19.5 30.75 C19.058 31.359 18.616 31.968 18.16 32.596 C9.382 44.42 -1.114 54.222 -16 57 C-20.663 57.496 -25.316 57.804 -30 58 C-28.521 58.423 -28.521 58.423 -27.012 58.855 C-16.817 61.94 -7.256 66.035 2.312 70.688 C3.487 71.258 4.661 71.829 5.87 72.417 C8.927 73.921 11.979 75.425 15 77 C15.923 77.473 16.846 77.946 17.798 78.433 C20 80 20 80 20.959 81.801 C21.05 86.704 18.201 91.287 16.223 95.673 C15.38 97.552 14.566 99.441 13.754 101.334 C13.224 102.524 12.694 103.715 12.148 104.941 C11.666 106.031 11.183 107.121 10.685 108.244 C8.719 111.459 7.58 112.775 4 114 C1.321 113.208 -0.696 112.386 -3.137 111.117 C-3.816 110.787 -4.496 110.457 -5.196 110.117 C-7.37 109.057 -9.529 107.968 -11.688 106.875 C-14.52 105.466 -17.357 104.069 -20.199 102.68 C-20.881 102.346 -21.563 102.012 -22.266 101.668 C-30.819 97.546 -39.692 93.855 -49.125 97.062 C-55.204 101.159 -58.799 107.008 -62.41 113.277 C-64 115 -64 115 -66.295 115.274 C-69.483 114.951 -71.167 114.032 -73.871 112.332 C-75.228 111.486 -75.228 111.486 -76.611 110.623 C-77.544 110.026 -78.477 109.428 -79.438 108.812 C-80.366 108.234 -81.295 107.656 -82.252 107.061 C-87.132 103.987 -91.683 100.827 -96 97 C-91.751 82.566 -79.856 69.486 -67 62 C-59.062 57.752 -50.834 56.895 -42 56 C-42.914 55.718 -43.828 55.435 -44.77 55.145 C-59.136 50.484 -72.51 43.714 -86 37 C-86.757 36.715 -87.514 36.43 -88.294 36.136 C-90 35 -90 35 -90.904 32.77 C-91.029 29.166 -90.031 26.957 -88.543 23.676 C-88.007 22.483 -87.472 21.29 -86.92 20.061 C-86.636 19.446 -86.351 18.831 -86.058 18.197 C-85.188 16.314 -84.338 14.423 -83.49 12.529 C-79.306 3.306 -79.306 3.306 -77 1 C-71.993 1.306 -68.181 2.601 -63.727 4.836 C-61.994 5.691 -61.994 5.691 -60.227 6.562 C-59.026 7.166 -57.825 7.77 -56.625 8.375 C-39.172 17.789 -39.172 17.789 -19.961 17.332 C-14.536 14.1 -11.736 8.099 -8.699 2.766 C-6.087 -1.486 -4.569 -1.253 0 0 Z " fill="#1E7AF3" transform="translate(185,4)"/>
<path d="M0 0 C5.007 0.306 8.819 1.601 13.273 3.836 C14.428 4.406 15.583 4.975 16.773 5.562 C17.974 6.166 19.175 6.77 20.375 7.375 C27.799 11.095 35.024 14.626 43 17 C43 17.33 43 17.66 43 18 C37.265 17.63 33.082 16.846 28 14 C26.137 13.039 24.261 12.103 22.375 11.188 C21.455 10.727 20.534 10.267 19.586 9.793 C17.057 8.745 17.057 8.745 14.789 9.73 C9.184 13.708 6.201 20.547 4 26.875 C2.761 29.507 1.62 29.901 -1 31 C-1.33 31.66 -1.66 32.32 -2 33 C-1.01 33.33 -0.02 33.66 1 34 C0.34 34.99 -0.32 35.98 -1 37 C0.32 37.33 1.64 37.66 3 38 C3 38.66 3 39.32 3 40 C3.578 39.752 4.155 39.505 4.75 39.25 C5.493 39.167 6.235 39.085 7 39 C8.378 40.287 9.705 41.629 11 43 C12.969 44.06 14.964 45.075 17 46 C16.67 46.66 16.34 47.32 16 48 C12.044 46.214 8.093 44.418 4.147 42.611 C2.804 41.997 1.46 41.387 0.114 40.781 C-1.821 39.907 -3.751 39.023 -5.68 38.137 C-6.842 37.608 -8.005 37.079 -9.203 36.534 C-12 35 -12 35 -14 32 C-13.622 28.065 -12.146 24.71 -10.566 21.113 C-10.082 20.01 -9.598 18.908 -9.1 17.771 C-8.592 16.63 -8.085 15.489 -7.562 14.312 C-6.807 12.583 -6.807 12.583 -6.037 10.818 C-2.255 2.255 -2.255 2.255 0 0 Z M15 9 C17 10 17 10 17 10 Z " fill="#0D5ED4" transform="translate(108,5)"/>
<path d="M0 0 C5.822 0.974 10.791 3.433 16.125 5.875 C17.127 6.322 18.128 6.77 19.16 7.23 C20.121 7.667 21.081 8.104 22.07 8.555 C22.944 8.952 23.819 9.348 24.719 9.757 C27.009 11.005 28.53 11.839 30 14 C29.558 20.147 26.172 26.047 23.75 31.625 C23.033 33.342 23.033 33.342 22.301 35.094 C21.825 36.189 21.349 37.285 20.859 38.414 C20.431 39.414 20.003 40.414 19.562 41.444 C17.718 44.461 16.249 45.636 13 47 C10.109 46.05 7.833 45.097 5.188 43.688 C4.495 43.34 3.802 42.993 3.088 42.635 C1.382 41.776 -0.31 40.89 -2 40 C-1.67 39.01 -1.34 38.02 -1 37 C-0.01 37.33 0.98 37.66 2 38 C2.66 36.35 3.32 34.7 4 33 C4.66 33 5.32 33 6 33 C6.289 32.278 6.577 31.556 6.875 30.812 C7.917 28.208 8.958 25.604 10 23 C10.66 23 11.32 23 12 23 C12.289 22.278 12.577 21.556 12.875 20.812 C13.246 19.884 13.618 18.956 14 18 C14.526 16.67 14.526 16.67 15.062 15.312 C16 13 16 13 17 11 C17 10.01 17 9.02 17 8 C16.01 8.33 15.02 8.66 14 9 C11.5 7.769 9.186 6.503 6.812 5.062 C5.831 4.483 5.831 4.483 4.83 3.893 C3.215 2.937 1.607 1.97 0 1 C0 0.67 0 0.34 0 0 Z M-17 31 C-12.028 32.492 -7.582 34.605 -3 37 C-3.33 37.66 -3.66 38.32 -4 39 C-8.29 37.02 -12.58 35.04 -17 33 C-17 32.34 -17 31.68 -17 31 Z " fill="#0A5FDA" transform="translate(176,71)"/>
<path d="M0 0 C3.389 2.137 4.726 3.177 6 7 C6 9.31 6 11.62 6 14 C1.05 14 -3.9 14 -9 14 C-8.67 14.99 -8.34 15.98 -8 17 C-5.355 18.322 -3.322 18.097 -0.375 18.062 C0.628 18.053 1.631 18.044 2.664 18.035 C3.82 18.018 3.82 18.018 5 18 C4.67 19.65 4.34 21.3 4 23 C-0.504 23.831 -3.967 24.344 -8.375 22.875 C-11.409 20.708 -12.638 19.479 -14 16 C-14.57 11.646 -14.479 8.126 -12.75 4.062 C-9.081 -0.261 -5.575 -0.587 0 0 Z M-7.812 5.25 C-9.184 7.102 -9.184 7.102 -10 10 C-6.04 10 -2.08 10 2 10 C1.34 8.35 0.68 6.7 0 5 C-4.066 3.601 -4.066 3.601 -7.812 5.25 Z " fill="#102444" transform="translate(248,141)"/>
<path d="M0 0 C3.389 2.137 4.726 3.177 6 7 C6 9.31 6 11.62 6 14 C1.05 14 -3.9 14 -9 14 C-8.67 14.99 -8.34 15.98 -8 17 C-5.355 18.322 -3.322 18.097 -0.375 18.062 C0.628 18.053 1.631 18.044 2.664 18.035 C3.82 18.018 3.82 18.018 5 18 C4.67 19.65 4.34 21.3 4 23 C-0.504 23.831 -3.967 24.344 -8.375 22.875 C-11.409 20.708 -12.638 19.479 -14 16 C-14.644 12.131 -14.91 8.622 -12.945 5.121 C-8.94 0.204 -6.236 -0.528 0 0 Z M-7.812 5.25 C-9.184 7.102 -9.184 7.102 -10 10 C-6.04 10 -2.08 10 2 10 C1.34 8.35 0.68 6.7 0 5 C-4.066 3.601 -4.066 3.601 -7.812 5.25 Z " fill="#172844" transform="translate(182,141)"/>
<path d="M0 0 C0 1.65 0 3.3 0 5 C-0.99 4.67 -1.98 4.34 -3 4 C-9.586 3.323 -9.586 3.323 -15.562 5.625 C-17.993 9.64 -18.298 12.619 -17.312 17.188 C-15.82 20.385 -15.202 21.522 -12 23 C-7.761 23.415 -4.052 23.351 0 22 C0 23.65 0 25.3 0 27 C-4.856 29.752 -9.744 29.312 -15 28 C-18.84 25.895 -21.374 23.064 -23 19 C-23.688 13.705 -23.655 9.31 -21.25 4.5 C-15.247 -2.171 -8.389 -4.067 0 0 Z " fill="#172C4E" transform="translate(69,136)"/>
<path d="M0 0 C3.48 2.003 5.707 4.121 7 8 C7.393 12.796 7.483 15.069 5.25 19.375 C1.909 23.273 1.909 23.273 -1 24 C-6.082 24 -8.029 23.789 -12 20.562 C-14.491 17.046 -14.704 13.634 -14.5 9.41 C-13.683 5.473 -11.922 3.714 -9 1 C-5.851 -0.575 -3.48 -0.348 0 0 Z M-7.688 6.125 C-10.225 8.796 -10.225 8.796 -10.5 12.062 C-9.935 15.379 -9.589 16.829 -7 19 C-3.5 19.75 -3.5 19.75 0 19 C2.206 17.02 2.206 17.02 3 14 C2.933 10.109 2.875 7.904 0.125 5.062 C-3.423 3.289 -4.589 3.675 -7.688 6.125 Z " fill="#132747" transform="translate(85,141)"/>
<path d="M0 0 C1.98 0.495 1.98 0.495 4 1 C4.33 6.61 4.66 12.22 5 18 C7.31 18 9.62 18 12 18 C13.156 14.533 13.328 11.459 13.562 7.812 C13.646 6.54 13.73 5.268 13.816 3.957 C13.877 2.981 13.938 2.005 14 1 C15.32 0.67 16.64 0.34 18 0 C18 7.59 18 15.18 18 23 C16.35 22.67 14.7 22.34 13 22 C12.361 22.33 11.721 22.66 11.062 23 C8 24.485 6.203 24.001 3 23 C-0.097 20.126 -1.253 17.97 -1.426 13.828 C-1.409 12.302 -1.37 10.775 -1.312 9.25 C-1.303 8.47 -1.293 7.69 -1.283 6.887 C-1.169 1.169 -1.169 1.169 0 0 Z " fill="#132544" transform="translate(146,141)"/>
<path d="M0 0 C1.32 0.33 2.64 0.66 4 1 C6.244 1.061 6.244 1.061 9.375 0.375 C14.261 -0.13 14.261 -0.13 17 2 C19.774 5.88 19.223 10.194 19.125 14.75 C19.116 15.543 19.107 16.336 19.098 17.152 C19.074 19.102 19.038 21.051 19 23 C17.35 23 15.7 23 14 23 C13.67 17.39 13.34 11.78 13 6 C8.419 4.53 8.419 4.53 6.23 5.957 C4.378 9.033 4.427 12.189 4.312 15.688 C4.278 16.389 4.244 17.091 4.209 17.814 C4.127 19.542 4.062 21.271 4 23 C2.68 23 1.36 23 0 23 C0 15.41 0 7.82 0 0 Z " fill="#172D51" transform="translate(96,141)"/>
<path d="M0 0 C0.99 0 1.98 0 3 0 C3.33 0.66 3.66 1.32 4 2 C4.99 1.34 5.98 0.68 7 0 C9.938 -0.375 9.938 -0.375 13 0 C15.303 1.867 16.678 3.356 18 6 C18.072 8.884 18.093 11.742 18.062 14.625 C18.058 15.427 18.053 16.229 18.049 17.055 C18.037 19.036 18.019 21.018 18 23 C16.68 23 15.36 23 14 23 C13.67 17.06 13.34 11.12 13 5 C7.522 4.553 7.522 4.553 5 6 C3.844 9.467 3.672 12.541 3.438 16.188 C3.354 17.46 3.27 18.732 3.184 20.043 C3.123 21.019 3.062 21.995 3 23 C1.68 23 0.36 23 -1 23 C-1.029 19.354 -1.047 15.708 -1.062 12.062 C-1.071 11.022 -1.079 9.981 -1.088 8.908 C-1.093 7.424 -1.093 7.424 -1.098 5.91 C-1.103 4.994 -1.108 4.077 -1.114 3.133 C-1 1 -1 1 0 0 Z " fill="#172B4C" transform="translate(193,141)"/>
<path d="M0 0 C0 1.32 0 2.64 0 4 C-1.65 4.33 -3.3 4.66 -5 5 C-5 5.99 -5 6.98 -5 8 C-3.35 8.33 -1.7 8.66 0 9 C0 10.32 0 11.64 0 13 C-1.98 13 -3.96 13 -6 13 C-6 18.94 -6 24.88 -6 31 C-7.32 31 -8.64 31 -10 31 C-10 25.06 -10 19.12 -10 13 C-11.32 13 -12.64 13 -14 13 C-13.67 11.35 -13.34 9.7 -13 8 C-12.34 8 -11.68 8 -11 8 C-10.752 7.072 -10.505 6.144 -10.25 5.188 C-8.096 -0.304 -5.661 -1.73 0 0 Z " fill="#172A49" transform="translate(131,133)"/>
<path d="M0 0 C1.052 -0.021 1.052 -0.021 2.125 -0.043 C4 0.188 4 0.188 6 2.188 C6 3.178 6 4.167 6 5.188 C3.07 5.139 3.07 5.139 0.141 5.09 C-2.033 5.189 -3.913 5.591 -6 6.188 C-6.054 7.812 -6.093 9.437 -6.125 11.062 C-6.16 12.42 -6.16 12.42 -6.195 13.805 C-6.243 16.376 -6.243 16.376 -4 18.188 C-1.567 18.649 -1.567 18.649 1.125 18.812 C2.035 18.887 2.945 18.962 3.883 19.039 C4.931 19.113 4.931 19.113 6 19.188 C5.67 20.507 5.34 21.827 5 23.188 C-0.653 24.457 -3.983 24.178 -9 21.188 C-11.671 17.682 -12.229 14.923 -12 10.625 C-11.328 6.149 -9.601 3.998 -6 1.188 C-3.771 0.073 -2.469 0.023 0 0 Z " fill="#122647" transform="translate(226,140.8125)"/>
<path d="M0 0 C1.65 0 3.3 0 5 0 C5 9.24 5 18.48 5 28 C6.32 28 7.64 28 9 28 C9 29.32 9 30.64 9 32 C3.556 32.363 3.556 32.363 1.319 30.903 C-0.645 28.069 -0.338 25.78 -0.293 22.363 C-0.278 20.415 -0.278 20.415 -0.264 18.428 C-0.239 17.056 -0.213 15.684 -0.188 14.312 C-0.172 12.929 -0.159 11.546 -0.146 10.162 C-0.111 6.774 -0.062 3.387 0 0 Z " fill="#15294A" transform="translate(134,132)"/>
<path d="M0 0 C3.389 2.137 4.726 3.177 6 7 C6 9.31 6 11.62 6 14 C1.05 14 -3.9 14 -9 14 C-7.68 13.34 -6.36 12.68 -5 12 C-5 11.34 -5 10.68 -5 10 C-3.02 9.67 -1.04 9.34 1 9 C0.67 8.01 0.34 7.02 0 6 C-3.978 5.267 -3.978 5.267 -8 5 C-8.33 5.66 -8.66 6.32 -9 7 C-9.99 6.67 -10.98 6.34 -12 6 C-11.664 3.481 -11.426 2.328 -9.375 0.75 C-6.048 -0.301 -3.472 -0.365 0 0 Z M-3 11 C-2.34 11.66 -1.68 12.32 -1 13 C-0.67 12.34 -0.34 11.68 0 11 C-0.99 11 -1.98 11 -3 11 Z " fill="#142745" transform="translate(248,141)"/>
<path d="M0 0 C4.714 0.65 8.577 2.516 12.812 4.562 C13.505 4.892 14.198 5.221 14.912 5.561 C16.61 6.369 18.306 7.184 20 8 C16.603 9.132 15.389 8.959 12 8 C9.395 6.66 9.395 6.66 6.812 5.062 C5.953 4.538 5.093 4.013 4.207 3.473 C2 2 2 2 0 0 Z M20 9 C22 10 22 10 22 10 Z M22 10 C27.75 11.75 27.75 11.75 30 14 C29.67 14.99 29.34 15.98 29 17 C26.667 14.667 24.333 12.333 22 10 Z M28 17 C28.33 17.66 28.66 18.32 29 19 C28.064 21.36 27.067 23.696 26 26 C25 23 25 23 26.438 19.812 C26.953 18.884 27.469 17.956 28 17 Z M23 28 C24.205 31.615 23.421 32.832 21.795 36.143 C21.471 36.776 21.147 37.41 20.812 38.062 C20.355 39.019 20.355 39.019 19.889 39.994 C18.534 42.69 17.405 44.708 14.934 46.488 C12.143 47.227 10.514 46.257 8 45 C8 44.67 8 44.34 8 44 C10.31 44 12.62 44 15 44 C15.326 43.348 15.652 42.695 15.988 42.023 C18.326 37.349 20.663 32.674 23 28 Z M-2 38 C-1.34 38.66 -0.68 39.32 0 40 C-0.66 40 -1.32 40 -2 40 C-2 39.34 -2 38.68 -2 38 Z M0 40 C3.688 40.498 5.605 41.101 8 44 C2.25 42.25 2.25 42.25 0 40 Z " fill="#1958B9" transform="translate(176,71)"/>
<path d="M0 0 C0.99 0 1.98 0 3 0 C3 7.59 3 15.18 3 23 C1.68 23 0.36 23 -1 23 C-3.125 18.375 -3.125 18.375 -2 15 C-1.691 11.354 -1.49 7.708 -1.281 4.055 C-1 1 -1 1 0 0 Z " fill="#192E4F" transform="translate(161,141)"/>
<path d="M0 0 C1.32 0.33 2.64 0.66 4 1 C4.902 6.141 4.98 10.697 4.562 15.938 C4.484 16.963 4.484 16.963 4.404 18.01 C4.276 19.674 4.139 21.337 4 23 C2.68 23 1.36 23 0 23 C0 15.41 0 7.82 0 0 Z M6 4 C8 5 8 5 8 5 Z " fill="#192E51" transform="translate(96,141)"/>
<path d="M0 0 C2.746 1.469 4.797 2.797 7 5 C6.67 5.99 6.34 6.98 6 8 C5.484 7.319 4.969 6.639 4.438 5.938 C2.046 3.615 2.046 3.615 -1.625 4.062 C-5.255 4.675 -5.255 4.675 -7 8 C-7.708 10.321 -8.38 12.654 -9 15 C-9.99 14.34 -10.98 13.68 -12 13 C-12.512 9.673 -12.725 7.208 -10.945 4.242 C-7.284 -0.242 -5.559 -1.551 0 0 Z " fill="#162A4B" transform="translate(83,142)"/>
<path d="M0 0 C0.598 0.825 1.196 1.65 1.812 2.5 C3.836 4.588 4.84 4.981 7.781 5.332 C10.536 5.314 13.254 5.216 16 5 C15.67 6.65 15.34 8.3 15 10 C10.496 10.831 7.033 11.344 2.625 9.875 C-0.21 7.85 -1.487 6.11 -3 3 C-2.01 2.01 -1.02 1.02 0 0 Z " fill="#162C50" transform="translate(171,154)"/>
<path d="M0 0 C3.707 0.501 5.657 1.037 8 4 C8.341 5.901 8.341 5.901 8.293 8.012 C8.283 8.769 8.274 9.526 8.264 10.307 C8.239 11.092 8.213 11.878 8.188 12.688 C8.174 13.485 8.16 14.282 8.146 15.104 C8.111 17.069 8.057 19.035 8 21 C6.68 21 5.36 21 4 21 C3.939 19.964 3.879 18.927 3.816 17.859 C3.732 16.49 3.647 15.12 3.562 13.75 C3.523 13.068 3.484 12.386 3.443 11.684 C3.261 5.201 3.261 5.201 0 0 Z " fill="#132747" transform="translate(203,143)"/>
<path d="M0 0 C0.99 0.33 1.98 0.66 3 1 C4.125 3.5 4.125 3.5 5 6 C6.663 7.663 8.783 7.36 11.062 7.562 C11.982 7.646 12.901 7.73 13.848 7.816 C14.913 7.907 14.913 7.907 16 8 C15.67 9.32 15.34 10.64 15 12 C10.051 12.99 6.572 13.339 2 11 C-0.202 7.397 -0.193 4.151 0 0 Z " fill="#132747" transform="translate(216,152)"/>
<path d="M0 0 C3.378 0.784 4.533 1.081 6.5 3.812 C7.942 6.697 7.594 9.23 7.562 12.438 C7.553 13.626 7.544 14.815 7.535 16.039 C7.524 16.954 7.512 17.87 7.5 18.812 C5.468 15.409 5.131 12.489 4.875 8.562 C4.763 6.946 4.763 6.946 4.648 5.297 C4.599 4.477 4.55 3.657 4.5 2.812 C3.51 2.812 2.52 2.812 1.5 2.812 C2.49 4.298 2.49 4.298 3.5 5.812 C0.53 5.482 -2.44 5.153 -5.5 4.812 C-5.83 3.822 -6.16 2.833 -6.5 1.812 C-3.5 -0.188 -3.5 -0.188 0 0 Z " fill="#152743" transform="translate(107.5,141.1875)"/>
<path d="M0 0 C1.083 0.371 1.083 0.371 2.188 0.75 C2.188 2.07 2.188 3.39 2.188 4.75 C1.012 4.874 1.012 4.874 -0.188 5 C-2.96 5.478 -2.96 5.478 -4.125 7.812 C-4.352 8.452 -4.579 9.091 -4.812 9.75 C-5.802 9.75 -6.793 9.75 -7.812 9.75 C-8.125 7 -8.125 7 -7.812 3.75 C-5.194 0.832 -3.979 -0.354 0 0 Z " fill="#152A4B" transform="translate(128.8125,132.25)"/>
<path d="M0 0 C0.33 1.32 0.66 2.64 1 4 C0.34 4 -0.32 4 -1 4 C-0.67 2.68 -0.34 1.36 0 0 Z M1 4 C3 5 3 5 3 5 Z M-1 5 C-0.34 5 0.32 5 1 5 C1.214 5.634 1.428 6.268 1.648 6.922 C2.854 9.256 2.854 9.256 5.602 9.828 C6.599 9.967 7.597 10.107 8.625 10.25 C10.129 10.474 10.129 10.474 11.664 10.703 C12.435 10.801 13.206 10.899 14 11 C14 11.99 14 12.98 14 14 C9.434 14.358 6.071 14.602 2 12.312 C-0.182 9.79 -0.726 8.287 -1 5 Z " fill="#193055" transform="translate(236,149)"/>
<path d="M0 0 C0 1.65 0 3.3 0 5 C-1.65 4.34 -3.3 3.68 -5 3 C-4.34 2.34 -3.68 1.68 -3 1 C-10.443 0.38 -10.443 0.38 -17.188 3 C-17.786 3.66 -18.384 4.32 -19 5 C-19.66 4.67 -20.32 4.34 -21 4 C-14.361 -1.754 -8.59 -4.165 0 0 Z M-10 1 C-8.35 1 -6.7 1 -5 1 C-5.33 1.66 -5.66 2.32 -6 3 C-7.65 3 -9.3 3 -11 3 C-10.67 2.34 -10.34 1.68 -10 1 Z " fill="#122545" transform="translate(69,136)"/>
<path d="M0 0 C0.33 0 0.66 0 1 0 C1.049 0.904 1.098 1.807 1.148 2.738 C1.223 3.918 1.298 5.097 1.375 6.312 C1.445 7.484 1.514 8.656 1.586 9.863 C1.786 13.157 1.786 13.157 4 16 C7.568 16.736 7.568 16.736 11 17 C9.225 19.242 8.378 19.943 5.5 20.375 C3 20 3 20 1.25 19 C-2.25 13.4 -0.933 6.201 0 0 Z " fill="#1A3055" transform="translate(147,143)"/>
<path d="M0 0 C2 1 2 1 2 1 Z M-2 3 C-3.51 6.571 -5.606 8.814 -8.375 11.5 C-9.146 12.253 -9.917 13.006 -10.711 13.781 C-11.844 14.88 -11.844 14.88 -13 16 C-14.336 17.331 -15.67 18.664 -17 20 C-15.51 15.219 -12.855 12.255 -9.5 8.688 C-9.001 8.138 -8.502 7.588 -7.988 7.021 C-4.262 3 -4.262 3 -2 3 Z " fill="#2A77DD" transform="translate(113,69)"/>
<path d="M0 0 C0.33 0.66 0.66 1.32 1 2 C-0.155 1.897 -1.31 1.794 -2.5 1.688 C-8.357 1.667 -12.619 4.705 -16.73 8.668 C-17.149 9.108 -17.568 9.547 -18 10 C-18.438 7.812 -18.438 7.812 -18 5 C-12.429 -0.571 -7.621 -0.62 0 0 Z " fill="#193054" transform="translate(66,136)"/>
<path d="M0 0 C5.94 0.99 5.94 0.99 12 2 C12 2.33 12 2.66 12 3 C11.216 3.083 10.433 3.165 9.625 3.25 C6.86 3.715 6.86 3.715 5.812 6 C5.544 6.66 5.276 7.32 5 8 C4.01 8.495 4.01 8.495 3 9 C3 7.68 3 6.36 3 5 C1.68 5 0.36 5 -1 5 C-0.67 3.35 -0.34 1.7 0 0 Z " fill="#1A3157" transform="translate(118,141)"/>
<path d="M0 0 C0 0.99 0 1.98 0 3 C-0.536 2.835 -1.072 2.67 -1.625 2.5 C-4.459 1.903 -7.112 1.934 -10 2 C-10.33 2.66 -10.66 3.32 -11 4 C-11.99 3.67 -12.98 3.34 -14 3 C-14 2.34 -14 1.68 -14 1 C-5.714 -2.714 -5.714 -2.714 0 0 Z " fill="#162B4E" transform="translate(250,144)"/>
<path d="M0 0 C1.375 2.062 1.375 2.062 2 4 C1.34 3.814 0.68 3.629 0 3.438 C-3.893 2.87 -7.114 3.407 -11 4 C-11.33 4.99 -11.66 5.98 -12 7 C-13 4 -13 4 -12 1 C-7.722 -0.99 -4.522 -1.439 0 0 Z " fill="#172D51" transform="translate(183,143)"/>
<path d="M0 0 C2.125 0.375 2.125 0.375 4 1 C4 1.66 4 2.32 4 3 C4.578 2.752 5.155 2.505 5.75 2.25 C6.864 2.126 6.864 2.126 8 2 C9.378 3.287 10.705 4.629 12 6 C13.969 7.06 15.964 8.075 18 9 C17.67 9.66 17.34 10.32 17 11 C10.73 8.03 4.46 5.06 -2 2 C-1.34 1.34 -0.68 0.68 0 0 Z " fill="#1660CB" transform="translate(107,42)"/>
<path d="M0 0 C0 1.65 0 3.3 0 5 C-4.78 7.709 -9.806 7.258 -15 6 C-17.309 4.449 -17.309 4.449 -19 3 C-18.67 2.34 -18.34 1.68 -18 1 C-17.188 1.737 -17.188 1.737 -16.359 2.488 C-13.428 4.367 -11.697 4.311 -8.25 4.188 C-7.265 4.16 -6.28 4.133 -5.266 4.105 C-4.518 4.071 -3.77 4.036 -3 4 C-3 3.01 -3 2.02 -3 1 C-1 0 -1 0 0 0 Z " fill="#14253F" transform="translate(69,158)"/>
<path d="M0 0 C2.938 1.75 2.938 1.75 5 4 C5 5.32 5 6.64 5 8 C4.34 8 3.68 8 3 8 C2.67 8.66 2.34 9.32 2 10 C1.34 8.02 0.68 6.04 0 4 C0.66 4 1.32 4 2 4 C-1.996 1.17 -5.427 2.238 -10 3 C-7.29 -0.826 -4.41 -0.532 0 0 Z " fill="#142541" transform="translate(182,141)"/>
<path d="M0 0 C0.33 1.32 0.66 2.64 1 4 C1.33 3.34 1.66 2.68 2 2 C2.66 2.33 3.32 2.66 4 3 C3.01 5.97 2.02 8.94 1 12 C0.01 11.67 -0.98 11.34 -2 11 C-2.25 3.375 -2.25 3.375 0 0 Z " fill="#162B4D" transform="translate(170,145)"/>
<path d="M0 0 C0.99 0.66 1.98 1.32 3 2 C2.67 2.66 2.34 3.32 2 4 C1.34 4 0.68 4 0 4 C-0.99 4.495 -0.99 4.495 -2 5 C-4.333 5.04 -6.667 5.043 -9 5 C-8.625 3.062 -8.625 3.062 -8 1 C-5.229 -0.386 -3.067 -0.188 0 0 Z " fill="#162845" transform="translate(206,141)"/>
<path d="M0 0 C0.639 0.66 1.279 1.32 1.938 2 C6.045 4.682 9.234 4.374 14 4 C14.33 3.01 14.66 2.02 15 1 C15.66 1 16.32 1 17 1 C16.67 2.65 16.34 4.3 16 6 C10.125 7.084 6.179 7.537 1 4 C0.34 3.01 -0.32 2.02 -1 1 C-0.67 0.67 -0.34 0.34 0 0 Z " fill="#132541" transform="translate(170,158)"/>
<path d="M0 0 C0.33 0 0.66 0 1 0 C1 2.31 1 4.62 1 7 C-0.98 7 -2.96 7 -5 7 C-5 6.67 -5 6.34 -5 6 C-7.97 5.505 -7.97 5.505 -11 5 C-11 4.67 -11 4.34 -11 4 C-9.742 3.897 -8.484 3.794 -7.188 3.688 C-3.843 3.29 -3.843 3.29 -1.062 1.438 C-0.712 0.963 -0.361 0.489 0 0 Z " fill="#192E51" transform="translate(187,148)"/>
<path d="M0 0 C3.853 0.622 7.033 1.783 10.562 3.438 C11.957 4.085 11.957 4.085 13.379 4.746 C15.598 5.808 17.805 6.889 20 8 C14.326 7.634 9.987 6.947 5 4 C4.051 3.464 3.102 2.928 2.125 2.375 C1.073 1.694 1.073 1.694 0 1 C0 0.67 0 0.34 0 0 Z " fill="#1A60C8" transform="translate(131,15)"/>
<path d="M0 0 C3 0 3 0 5.688 2.5 C6.451 3.325 7.214 4.15 8 5 C7.01 6.485 7.01 6.485 6 8 C2.839 6.63 2.007 6.011 0 3 C0 2.01 0 1.02 0 0 Z " fill="#142746" transform="translate(71,155)"/>
<path d="M0 0 C6.055 -0.195 6.055 -0.195 8 0 C10 2 10 2 10 5 C3.477 4.508 3.477 4.508 1.062 1.938 C0.537 0.978 0.537 0.978 0 0 Z " fill="#192C4C" transform="translate(222,141)"/>
<path d="M0 0 C0.33 0 0.66 0 1 0 C1 2.97 1 5.94 1 9 C0.67 9 0.34 9 0 9 C0 6.03 0 3.06 0 0 Z M2 7 C4.475 7.99 4.475 7.99 7 9 C6.67 9.99 6.34 10.98 6 12 C4.062 11.625 4.062 11.625 2 11 C1.67 10.34 1.34 9.68 1 9 C1.33 8.34 1.66 7.68 2 7 Z " fill="#192E50" transform="translate(134,152)"/>
<path d="M0 0 C0.99 0.33 1.98 0.66 3 1 C2.917 1.743 2.835 2.485 2.75 3.25 C3.071 6.782 4.353 7.766 7 10 C6.01 10.495 6.01 10.495 5 11 C0.077 6.815 0.077 6.815 -0.312 2.688 C-0.209 1.801 -0.106 0.914 0 0 Z " fill="#1A3055" transform="translate(216,152)"/>
<path d="M0 0 C1.98 0.495 1.98 0.495 4 1 C4 2.65 4 4.3 4 6 C1.525 5.01 1.525 5.01 -1 4 C-0.34 3.34 0.32 2.68 1 2 C0.67 1.34 0.34 0.68 0 0 Z M-6 2 C-4.35 2 -2.7 2 -1 2 C-1.33 2.66 -1.66 3.32 -2 4 C-3.65 4 -5.3 4 -7 4 C-6.67 3.34 -6.34 2.68 -6 2 Z " fill="#142744" transform="translate(65,135)"/>
<path d="M0 0 C4.827 1.413 8.716 3.43 13 6 C12.01 6.495 12.01 6.495 11 7 C8.398 6.004 8.398 6.004 5.375 4.562 C4.372 4.089 3.369 3.616 2.336 3.129 C1.565 2.756 0.794 2.384 0 2 C0 1.34 0 0.68 0 0 Z " fill="#135BC6" transform="translate(159,102)"/>
<path d="M0 0 C0 1.98 0 3.96 0 6 C-1.65 6 -3.3 6 -5 6 C-4.688 4.125 -4.688 4.125 -4 2 C-1 0 -1 0 0 0 Z " fill="#192D4D" transform="translate(254,149)"/>
<path d="M0 0 C2.475 0.495 2.475 0.495 5 1 C6.63 5.122 7.263 7.707 6 12 C5.67 12 5.34 12 5 12 C5 9.36 5 6.72 5 4 C4.34 4 3.68 4 3 4 C1.375 2 1.375 2 0 0 Z " fill="#1B3258" transform="translate(203,143)"/>
<path d="M0 0 C6.75 1.625 6.75 1.625 9 5 C6.03 4.67 3.06 4.34 0 4 C-0.33 3.01 -0.66 2.02 -1 1 C-0.67 0.67 -0.34 0.34 0 0 Z " fill="#122545" transform="translate(102,142)"/>
<path d="M0 0 C0.99 0.66 1.98 1.32 3 2 C2.051 2.103 1.102 2.206 0.125 2.312 C-3.291 2.685 -3.291 2.685 -5 6 C-5.99 5.67 -6.98 5.34 -8 5 C-8 4.34 -8 3.68 -8 3 C-6.736 2.442 -5.464 1.904 -4.188 1.375 C-3.48 1.073 -2.772 0.772 -2.043 0.461 C-1.369 0.309 -0.695 0.157 0 0 Z " fill="#1A3155" transform="translate(244,142)"/>
<path d="M0 0 C0 1.65 0 3.3 0 5 C-1.98 5.66 -3.96 6.32 -6 7 C-6.33 6.34 -6.66 5.68 -7 5 C-5.68 4.67 -4.36 4.34 -3 4 C-3 3.01 -3 2.02 -3 1 C-1 0 -1 0 0 0 Z " fill="#122442" transform="translate(69,158)"/>
<path d="M0 0 C2.31 0.33 4.62 0.66 7 1 C6.67 1.66 6.34 2.32 6 3 C4.02 3 2.04 3 0 3 C0 2.01 0 1.02 0 0 Z " fill="#192F53" transform="translate(60,160)"/>
<path d="M0 0 C0.66 0 1.32 0 2 0 C1.67 1.65 1.34 3.3 1 5 C0.01 4.67 -0.98 4.34 -2 4 C-1.34 2.68 -0.68 1.36 0 0 Z M-8 5 C-6.02 5 -4.04 5 -2 5 C-2 5.33 -2 5.66 -2 6 C-3.98 6 -5.96 6 -8 6 C-8 5.67 -8 5.34 -8 5 Z " fill="#19283F" transform="translate(251,159)"/>
<path d="M0 0 C0 2.31 0 4.62 0 7 C-0.66 6.34 -1.32 5.68 -2 5 C-2.66 5.99 -3.32 6.98 -4 8 C-3.744 5.657 -3.407 3.322 -3 1 C-1 0 -1 0 0 0 Z " fill="#1D2C44" transform="translate(125,147)"/>
<path d="M0 0 C0 0.66 0 1.32 0 2 C-2.31 2.33 -4.62 2.66 -7 3 C-7 2.01 -7 1.02 -7 0 C-3.867 -1.044 -3.01 -0.934 0 0 Z " fill="#1B3156" transform="translate(83,161)"/>
<path d="M0 0 C2.475 0.495 2.475 0.495 5 1 C5 1.99 5 2.98 5 4 C4.34 4 3.68 4 3 4 C2.67 4.66 2.34 5.32 2 6 C1.34 4.02 0.68 2.04 0 0 Z " fill="#132746" transform="translate(182,145)"/>
<path d="M0 0 C0.66 0.33 1.32 0.66 2 1 C1.01 2.485 1.01 2.485 0 4 C-0.66 4 -1.32 4 -2 4 C-2.33 4.99 -2.66 5.98 -3 7 C-4 4 -4 4 -3 1 C-2.01 0.67 -1.02 0.34 0 0 Z " fill="#1A3157" transform="translate(174,143)"/>
<path d="M0 0 C0.99 0.33 1.98 0.66 3 1 C3 2.32 3 3.64 3 5 C1.68 5 0.36 5 -1 5 C-0.67 3.35 -0.34 1.7 0 0 Z " fill="#14233D" transform="translate(118,141)"/>
<path d="M0 0 C1.65 0 3.3 0 5 0 C3.71 1.376 2.373 2.708 1 4 C0.34 4 -0.32 4 -1 4 C-0.67 2.68 -0.34 1.36 0 0 Z " fill="#0D203F" transform="translate(198,142)"/>
<path d="M0 0 C0.66 0 1.32 0 2 0 C1.67 1.65 1.34 3.3 1 5 C0.34 5 -0.32 5 -1 5 C-0.67 3.35 -0.34 1.7 0 0 Z " fill="#152744" transform="translate(185,159)"/>
<path d="M0 0 C0.66 1.32 1.32 2.64 2 4 C1.34 4.66 0.68 5.32 0 6 C-0.66 5.01 -1.32 4.02 -2 3 C-1.34 2.01 -0.68 1.02 0 0 Z " fill="#1A3157" transform="translate(73,151)"/>
<path d="M0 0 C0.33 1.32 0.66 2.64 1 4 C-0.65 3.67 -2.3 3.34 -4 3 C-2.68 2.01 -1.36 1.02 0 0 Z " fill="#172844" transform="translate(130,133)"/>
<path d="M0 0 C0.99 0.33 1.98 0.66 3 1 C2.67 1.66 2.34 2.32 2 3 C0.35 2.67 -1.3 2.34 -3 2 C-2.01 1.34 -1.02 0.68 0 0 Z " fill="#152C51" transform="translate(248,160)"/>
<path d="M0 0 C0.99 0.33 1.98 0.66 3 1 C3 1.99 3 2.98 3 4 C1.68 3.67 0.36 3.34 -1 3 C-0.67 2.01 -0.34 1.02 0 0 Z " fill="#10213E" transform="translate(229,142)"/>
<path d="M0 0 C2.125 0.375 2.125 0.375 4 1 C3.67 1.66 3.34 2.32 3 3 C1.35 2.67 -0.3 2.34 -2 2 C-1.34 1.34 -0.68 0.68 0 0 Z " fill="#135FCE" transform="translate(107,42)"/>
<path d="M0 0 C0.66 0.33 1.32 0.66 2 1 C2 1.66 2 2.32 2 3 C0.68 2.67 -0.64 2.34 -2 2 C-1.34 1.34 -0.68 0.68 0 0 Z " fill="#1B2B44" transform="translate(209,161)"/>
<path d="M0 0 C0.66 0.33 1.32 0.66 2 1 C1.34 2.32 0.68 3.64 0 5 C-0.33 4.01 -0.66 3.02 -1 2 C-0.67 1.34 -0.34 0.68 0 0 Z " fill="#0C2144" transform="translate(235,146)"/>
<path d="M0 0 C0.66 0 1.32 0 2 0 C1.67 1.32 1.34 2.64 1 4 C0.34 3.01 -0.32 2.02 -1 1 C-0.67 0.67 -0.34 0.34 0 0 Z " fill="#0B1F40" transform="translate(194,141)"/>
<path d="M0 0 C0.66 0.66 1.32 1.32 2 2 C1.01 2 0.02 2 -1 2 C-0.67 1.34 -0.34 0.68 0 0 Z " fill="#0D2347" transform="translate(199,143)"/>
</svg>