
<!-- Generator: visioncortex VTracer 0.6.4 -->
<svg version="1.1" xmlns="http://www.w3.org/2000/svg" viewBox="0 0 462 438" preserveAspectRatio="xMidYMid meet">
<path d="M0 0 C1.6 2.356 1.6 2.356 3.289 5.411 C5.763 8.953 7.09 10.706 11.24 12.046 C15.32 12.432 19.284 12.489 23.377 12.423 C24.932 12.438 26.486 12.458 28.041 12.482 C32.246 12.532 36.449 12.513 40.654 12.478 C45.064 12.45 49.474 12.476 53.884 12.493 C61.288 12.513 68.692 12.487 76.096 12.434 C84.645 12.374 93.191 12.394 101.74 12.454 C109.092 12.504 116.444 12.511 123.796 12.482 C128.182 12.465 132.567 12.463 136.953 12.499 C141.078 12.531 145.199 12.509 149.324 12.445 C150.833 12.431 152.342 12.435 153.851 12.459 C162.482 12.667 162.482 12.667 169.725 8.456 C171.737 5.716 173.449 3.022 175 0 C178.344 0.724 180.343 1.817 183 4 C182.387 6.962 181.746 8.381 180 11 C249.3 11.495 249.3 11.495 320 12 C320 25.86 320 39.72 320 54 C316 58 316 58 312.978 58.492 C311.787 58.489 310.596 58.485 309.369 58.481 C308.704 58.484 308.039 58.488 307.354 58.491 C305.127 58.498 302.901 58.476 300.675 58.454 C299.078 58.453 297.482 58.454 295.885 58.456 C291.55 58.457 287.216 58.433 282.882 58.406 C278.352 58.381 273.823 58.378 269.293 58.373 C260.715 58.361 252.138 58.328 243.56 58.288 C233.795 58.243 224.029 58.221 214.264 58.201 C194.176 58.159 174.088 58.089 154 58 C152.568 61.007 151.138 64.015 149.708 67.024 C149.307 67.866 148.906 68.709 148.492 69.577 C145.002 76.93 141.75 84.358 138.625 91.875 C138.353 92.526 138.082 93.178 137.802 93.849 C118.895 139.26 99.059 188.46 94.359 237.797 C94 241 94 241 93 244 C90.03 244 87.06 244 84 244 C83.941 243.359 83.881 242.718 83.82 242.058 C77.772 179.081 53.943 117.113 25.076 61.095 C24.307 59.597 23.543 58.096 22.783 56.593 C14.376 39.962 5.339 23.769 -6.551 9.348 C-8 7 -8 7 -7.812 4.793 C-5.922 0.62 -4.654 0 0 0 Z M166 32 C167 34 167 34 167 34 Z M165 34 C166 36 166 36 166 36 Z M35 58 C35.33 58.99 35.66 59.98 36 61 C70.65 61 105.3 61 141 61 C141.33 60.01 141.66 59.02 142 58 C106.69 58 71.38 58 35 58 Z M54 98 C54.33 98.99 54.66 99.98 55 101 C77.77 101 100.54 101 124 101 C124.33 100.01 124.66 99.02 125 98 C101.57 98 78.14 98 54 98 Z M-142 12 C-124.276 11.743 -106.552 11.549 -88.827 11.43 C-80.596 11.373 -72.366 11.296 -64.136 11.17 C-56.961 11.06 -49.786 10.99 -42.61 10.965 C-38.812 10.951 -35.015 10.917 -31.218 10.837 C-27.638 10.762 -24.062 10.739 -20.482 10.756 C-18.551 10.751 -16.62 10.692 -14.69 10.631 C-9.532 10.698 -6.316 10.749 -2.476 14.399 C-0.424 17.186 1.325 19.975 3 23 C3.807 24.267 4.618 25.532 5.434 26.793 C9.204 33.18 9.204 33.18 10.819 35.965 C11.634 37.368 12.452 38.769 13.274 40.168 C14.547 42.336 15.807 44.51 17.062 46.688 C17.457 47.359 17.851 48.03 18.258 48.721 C20.222 52.174 21 53.932 21 58 C0.19 58.093 -20.619 58.164 -41.429 58.207 C-51.091 58.228 -60.752 58.256 -70.414 58.302 C-78.834 58.342 -87.253 58.367 -95.672 58.376 C-100.132 58.382 -104.592 58.394 -109.051 58.423 C-113.247 58.45 -117.441 58.458 -121.636 58.452 C-123.178 58.454 -124.72 58.462 -126.262 58.477 C-128.364 58.497 -130.464 58.492 -132.565 58.481 C-133.742 58.485 -134.919 58.488 -136.132 58.492 C-139 58 -139 58 -140.881 56.239 C-142.093 53.814 -142.365 52.383 -142.341 49.69 C-142.34 48.85 -142.34 48.009 -142.34 47.143 C-142.324 46.245 -142.309 45.347 -142.293 44.422 C-142.289 43.495 -142.284 42.569 -142.28 41.614 C-142.263 38.659 -142.226 35.705 -142.188 32.75 C-142.172 30.745 -142.159 28.74 -142.146 26.734 C-142.113 21.823 -142.062 16.911 -142 12 Z " fill="#EAA28B" transform="translate(142,123)"/>
<path d="M0 0 C50.16 0 100.32 0 152 0 C152 8.58 152 17.16 152 26 C148 30 148 30 144.978 30.492 C143.787 30.489 142.596 30.485 141.369 30.481 C140.704 30.484 140.039 30.488 139.354 30.491 C137.127 30.498 134.901 30.476 132.675 30.454 C131.078 30.453 129.482 30.454 127.885 30.456 C123.55 30.457 119.216 30.433 114.882 30.406 C110.352 30.381 105.823 30.378 101.293 30.373 C92.715 30.361 84.138 30.328 75.56 30.288 C65.795 30.243 56.029 30.221 46.264 30.201 C26.176 30.159 6.088 30.089 -14 30 C-15.432 33.007 -16.862 36.015 -18.292 39.024 C-18.693 39.866 -19.094 40.709 -19.508 41.577 C-22.998 48.93 -26.25 56.358 -29.375 63.875 C-29.647 64.526 -29.918 65.178 -30.198 65.849 C-49.105 111.26 -68.941 160.46 -73.641 209.797 C-74 213 -74 213 -75 216 C-77.97 216 -80.94 216 -84 216 C-84.059 215.359 -84.119 214.718 -84.18 214.058 C-89.144 162.371 -105.875 110.414 -128.438 63.646 C-128.623 63.102 -128.809 62.559 -129 62 C-128.67 61.34 -128.34 60.68 -128 60 C-127.67 60.99 -127.34 61.98 -127 63 C-124.03 63 -121.06 63 -118 63 C-116.35 65.97 -114.7 68.94 -113 72 C-90.23 72.33 -67.46 72.66 -44 73 C-43.01 70.03 -42.02 67.06 -41 64 C-39.127 59.267 -37.094 54.604 -35.062 49.938 C-34.78 49.286 -34.497 48.634 -34.205 47.962 C-30.195 38.749 -26.022 29.631 -21.562 20.625 C-21.091 19.665 -20.62 18.704 -20.135 17.715 C-12.699 2.973 -12.699 2.973 -7.227 1 C-6.368 1 -5.51 1 -4.625 1 C-3.751 0.979 -2.877 0.959 -1.977 0.938 C-1.324 0.958 -0.672 0.979 0 1 C0 0.67 0 0.34 0 0 Z M-2 4 C-1 6 -1 6 -1 6 Z M-3 6 C-2 8 -2 8 -2 8 Z " fill="#D8999D" transform="translate(310,151)"/>
<path d="M0 0 C3.344 0.724 5.343 1.817 8 4 C7.387 6.962 6.746 8.381 5 11 C74.3 11.495 74.3 11.495 145 12 C145 17.28 145 22.56 145 28 C95.17 28 45.34 28 -6 28 C-6.33 28.66 -6.66 29.32 -7 30 C-8.561 30.073 -10.125 30.084 -11.688 30.062 C-15.52 30.415 -15.52 30.415 -18.68 32.43 C-23.905 40.017 -28.177 50.354 -32 58 C-67.64 58 -103.28 58 -140 58 C-143.63 51.4 -147.26 44.8 -151 38 C-157.593 25.998 -157.593 25.998 -165.004 14.504 C-166 13 -166 13 -166 12 C-164.79 12.007 -164.79 12.007 -163.555 12.015 C-143.907 12.133 -124.26 12.189 -104.613 12.179 C-95.111 12.175 -85.61 12.192 -76.108 12.257 C-67.825 12.314 -59.543 12.332 -51.26 12.304 C-46.875 12.291 -42.492 12.296 -38.107 12.348 C-33.976 12.397 -29.848 12.393 -25.716 12.351 C-24.204 12.344 -22.691 12.356 -21.179 12.389 C-12.536 12.651 -12.536 12.651 -5.273 8.462 C-3.26 5.72 -1.549 3.025 0 0 Z " fill="#F6B889" transform="translate(317,123)"/>
<path d="M0 0 C10.489 8.946 17.71 19.112 19.232 33.138 C20.249 47.889 17.653 60.416 8 72 C7.426 72.709 6.853 73.418 6.262 74.148 C-2.201 83.608 -14.433 88.294 -26.859 89.211 C-40.387 89.667 -51.161 85.379 -62.188 77.812 C-73.899 66.101 -78.291 53.916 -78.317 37.782 C-78.152 26.466 -74.819 17.973 -68 9 C-66.917 7.453 -66.917 7.453 -65.812 5.875 C-49.61 -12.82 -19.316 -13.471 0 0 Z " fill="#F29665" transform="translate(261,9)"/>
<path d="M0 0 C1.315 0.001 1.315 0.001 2.656 0.003 C4.16 0.001 4.16 0.001 5.695 -0.001 C7.359 0.004 7.359 0.004 9.056 0.01 C10.217 0.009 11.377 0.009 12.573 0.009 C16.431 0.01 20.289 0.018 24.147 0.025 C26.814 0.027 29.481 0.029 32.147 0.03 C38.462 0.033 44.776 0.041 51.091 0.051 C58.278 0.062 65.466 0.068 72.653 0.073 C87.441 0.083 102.23 0.101 117.018 0.123 C117.142 4.749 117.233 9.375 117.293 14.002 C117.318 15.576 117.352 17.149 117.396 18.722 C117.456 20.986 117.485 23.249 117.507 25.514 C117.533 26.215 117.558 26.916 117.585 27.638 C117.587 30.959 117.209 32.857 115.264 35.57 C110.152 38.016 105.203 37.645 99.609 37.577 C98.35 37.578 97.091 37.578 95.794 37.579 C92.35 37.58 88.907 37.557 85.463 37.529 C81.861 37.504 78.258 37.501 74.656 37.497 C67.839 37.484 61.021 37.451 54.204 37.411 C46.441 37.366 38.678 37.344 30.915 37.324 C14.949 37.283 -1.016 37.212 -16.982 37.123 C-16.322 31.953 -15.238 27.886 -13.075 23.131 C-12.791 22.499 -12.506 21.868 -12.212 21.217 C-11.615 19.896 -11.013 18.577 -10.407 17.26 C-9.476 15.236 -8.558 13.208 -7.642 11.178 C-2.644 0.164 -2.644 0.164 0 0 Z " fill="#C08DB2" transform="translate(297.9815149307251,184.87695217132568)"/>
<path d="M0 0 C19.123 -0.398 38.246 -0.697 57.372 -0.881 C66.254 -0.968 75.133 -1.088 84.013 -1.282 C91.756 -1.452 99.497 -1.562 107.242 -1.6 C111.342 -1.622 115.436 -1.673 119.534 -1.797 C144.467 -2.524 144.467 -2.524 150.329 1.664 C153.888 5.62 155.804 9.955 157.346 15.002 C158.226 17.689 159.598 19.945 161.125 22.312 C162.938 25.395 163 26.128 163 30 C142.19 30.093 121.381 30.164 100.571 30.207 C90.909 30.228 81.248 30.256 71.586 30.302 C63.166 30.342 54.747 30.367 46.328 30.376 C41.868 30.382 37.408 30.394 32.949 30.423 C28.753 30.45 24.559 30.458 20.364 30.452 C18.822 30.454 17.28 30.462 15.738 30.477 C13.636 30.497 11.536 30.492 9.435 30.481 C8.258 30.485 7.081 30.488 5.868 30.492 C3 30 3 30 1.116 28.35 C-0.299 25.371 -0.341 23.216 -0.293 19.922 C-0.278 18.182 -0.278 18.182 -0.264 16.406 C-0.239 15.2 -0.213 13.993 -0.188 12.75 C-0.174 11.528 -0.16 10.306 -0.146 9.047 C-0.111 6.031 -0.062 3.016 0 0 Z " fill="#D8999D" transform="translate(0,151)"/>
<path d="M0 0 C38.61 0 77.22 0 117 0 C134 32.3 134 32.3 134 37 C117.267 37.093 100.534 37.164 83.801 37.207 C76.031 37.228 68.261 37.256 60.492 37.302 C53.72 37.342 46.948 37.367 40.176 37.376 C36.59 37.382 33.005 37.394 29.419 37.423 C25.416 37.455 21.413 37.456 17.409 37.454 C15.627 37.476 15.627 37.476 13.809 37.498 C12.716 37.492 11.624 37.487 10.499 37.481 C9.552 37.485 8.605 37.488 7.63 37.492 C5 37 5 37 0 33 C0 22.11 0 11.22 0 0 Z " fill="#C08DB2" transform="translate(48,185)"/>
<path d="M0 0 C28.38 0 56.76 0 86 0 C99 32 99 32 99 36 C86.535 36.093 74.07 36.164 61.605 36.207 C55.817 36.228 50.03 36.257 44.242 36.302 C38.659 36.345 33.077 36.369 27.494 36.38 C25.361 36.387 23.229 36.401 21.096 36.423 C18.115 36.452 15.134 36.456 12.153 36.454 C10.823 36.476 10.823 36.476 9.466 36.498 C8.654 36.492 7.842 36.487 7.005 36.481 C5.948 36.487 5.948 36.487 4.868 36.492 C3 36 3 36 0 32 C0 21.44 0 10.88 0 0 Z " fill="#9B74D0" transform="translate(98,225)"/>
<path d="M0 0 C28.38 0 56.76 0 86 0 C86 10.89 86 21.78 86 33 C83 36 83 36 81.132 36.369 C80.426 36.366 79.721 36.364 78.995 36.361 C78.183 36.365 77.371 36.369 76.534 36.373 C75.648 36.362 74.761 36.352 73.847 36.341 C72.91 36.341 71.973 36.341 71.008 36.342 C67.908 36.34 64.808 36.316 61.707 36.293 C59.559 36.287 57.411 36.283 55.263 36.28 C49.606 36.269 43.949 36.239 38.292 36.206 C32.521 36.175 26.75 36.162 20.979 36.146 C9.652 36.114 -1.674 36.063 -13 36 C-10.232 23.545 -4.814 11.815 0 0 Z " fill="#9B74D0" transform="translate(279,225)"/>
<path d="M0 0 C22.77 0 45.54 0 69 0 C65.37 9.57 61.74 19.14 58 29 C55.939 34.678 53.894 40.35 51.938 46.062 C51.576 47.112 51.576 47.112 51.207 48.182 C46.629 61.513 42.752 75.011 39.121 88.627 C38.924 89.361 38.728 90.094 38.525 90.85 C37.997 92.831 37.475 94.814 36.955 96.797 C36.173 99.419 35.335 101.626 34 104 C32.55 99.808 31.355 95.619 30.293 91.312 C26.321 75.49 21.87 59.93 16.562 44.5 C16.31 43.762 16.058 43.024 15.797 42.263 C10.907 28.024 5.408 14.061 0 0 Z " fill="#FAE3A0" transform="translate(197,224)"/>
<path d="M0 0 C34.32 0 68.64 0 104 0 C95.469 20.719 95.469 20.719 92.625 27.5 C92.113 28.732 92.113 28.732 91.59 29.988 C89.116 35.884 89.116 35.884 88 37 C85.761 37.094 83.518 37.117 81.277 37.114 C80.575 37.114 79.872 37.114 79.149 37.114 C76.816 37.113 74.484 37.105 72.152 37.098 C70.54 37.096 68.927 37.094 67.314 37.093 C63.061 37.09 58.808 37.08 54.555 37.069 C50.218 37.058 45.882 37.054 41.545 37.049 C33.03 37.038 24.515 37.021 16 37 C15.764 36.448 15.528 35.895 15.285 35.326 C14.17 32.717 13.054 30.109 11.938 27.5 C11.382 26.199 11.382 26.199 10.814 24.871 C7.257 16.559 3.624 8.284 0 0 Z " fill="#F8CC93" transform="translate(179,184)"/>
<path d="M0 0 C0.99 0.495 0.99 0.495 2 1 C2 1.66 2 2.32 2 3 C4.97 3 7.94 3 11 3 C30.114 37.687 41.047 77.648 50 116 C50.306 114.895 50.612 113.791 50.927 112.652 C59.204 82.849 68.402 53.683 79.5 24.812 C79.756 24.145 80.012 23.478 80.275 22.791 C81 20.906 81.734 19.025 82.469 17.145 C82.886 16.076 83.303 15.007 83.732 13.906 C85.445 9.981 87.629 6.556 90 3 C91.875 2.523 91.875 2.523 94 2.375 C97.114 2.137 97.114 2.137 100 1 C98.244 6.562 96.253 11.998 94.102 17.418 C93.829 18.105 93.556 18.792 93.275 19.501 C92.993 20.213 92.71 20.926 92.418 21.66 C76.203 62.528 59.556 105.738 55.359 149.797 C55 153 55 153 54 156 C51.03 156 48.06 156 45 156 C44.941 155.359 44.881 154.718 44.82 154.058 C39.827 102.073 22.651 50.902 0.66 3.646 C0 2 0 2 0 0 Z " fill="#9F51E6" transform="translate(181,211)"/>
<path d="M0 0 C3.344 0.724 5.343 1.817 8 4 C7.387 6.962 6.746 8.381 5 11 C74.3 11.495 74.3 11.495 145 12 C145 17.28 145 22.56 145 28 C95.17 28 45.34 28 -6 28 C-6.33 28.66 -6.66 29.32 -7 30 C-9.215 30.379 -9.215 30.379 -11.938 30.562 C-15.607 30.768 -15.607 30.768 -19 32 C-17.472 26.438 -14.769 21.974 -11.75 17.125 C-11.285 16.361 -10.819 15.596 -10.34 14.809 C-7.162 9.652 -3.715 4.782 0 0 Z " fill="#EAA28B" transform="translate(317,123)"/>
<path d="M0 0 C9.382 8.001 14.074 15.222 18 27 C-13.35 27 -44.7 27 -77 27 C-71.568 12.062 -65.258 2.581 -50.84 -4.566 C-33.981 -11.899 -15.24 -10.628 0 0 Z " fill="#F08C57" transform="translate(261,9)"/>
<path d="M0 0 C30.03 0 60.06 0 91 0 C88.382 6.108 86.121 10.045 82 15 C81.52 15.599 81.041 16.199 80.547 16.816 C72.448 25.958 60.023 30.334 48.141 31.211 C34.613 31.667 23.839 27.379 12.812 19.812 C6.909 13.909 2.644 7.933 0 0 Z " fill="#F49E73" transform="translate(186,67)"/>
<path d="M0 0 C42.57 0 85.14 0 129 0 C129 11 129 11 127.276 13.659 C122.104 15.776 117.125 15.521 111.591 15.454 C110.332 15.455 109.073 15.455 107.776 15.456 C104.332 15.457 100.888 15.434 97.444 15.406 C93.842 15.381 90.24 15.378 86.638 15.373 C79.82 15.361 73.003 15.328 66.186 15.288 C58.423 15.243 50.66 15.221 42.897 15.201 C26.931 15.16 10.966 15.089 -5 15 C-4.477 8.722 -3.061 6.122 0 0 Z " fill="#B082C1" transform="translate(286,207)"/>
<path d="M0 0 C42.24 0 84.48 0 128 0 C134 12 134 12 134 15 C117.267 15.093 100.534 15.164 83.801 15.207 C76.031 15.228 68.261 15.256 60.492 15.302 C53.72 15.342 46.948 15.367 40.176 15.376 C36.59 15.382 33.005 15.394 29.419 15.423 C25.416 15.455 21.413 15.456 17.409 15.454 C15.627 15.476 15.627 15.476 13.809 15.498 C9.353 15.475 5.869 15.356 1.724 13.659 C0 11 0 11 0 0 Z " fill="#B082C1" transform="translate(48,207)"/>
<path d="M0 0 C0.99 0.495 0.99 0.495 2 1 C2 1.66 2 2.32 2 3 C4.97 3 7.94 3 11 3 C22.262 23.438 29.839 45.857 37 68 C37.225 68.696 37.451 69.391 37.683 70.108 C40.051 77.448 42.3 84.822 44.375 92.25 C44.713 93.451 45.05 94.653 45.398 95.891 C46 99 46 99 45 103 C42.03 102.67 39.06 102.34 36 102 C35.78 101.243 35.559 100.486 35.333 99.706 C25.771 66.994 15.061 34.593 0.66 3.646 C0 2 0 2 0 0 Z " fill="#9F51E6" transform="translate(181,211)"/>
<path d="M0 0 C22.77 0 45.54 0 69 0 C67.02 5.28 65.04 10.56 63 16 C44.19 16 25.38 16 6 16 C4.02 10.72 2.04 5.44 0 0 Z " fill="#F8CC93" transform="translate(197,224)"/>
<path d="M0 0 C19.47 0 38.94 0 59 0 C63 10 63 10 63 14 C42.21 14 21.42 14 0 14 C0 9.38 0 4.76 0 0 Z " fill="#8461E0" transform="translate(143,271)"/>
<path d="M0 0 C19.47 0 38.94 0 59 0 C59 4.62 59 9.24 59 14 C38.21 14 17.42 14 -4 14 C-3 8 -3 8 0 0 Z " fill="#8461E0" transform="translate(261,271)"/>
<path d="M0 0 C1.213 3.522 0.772 5.865 -0.145 9.438 C-0.409 10.498 -0.674 11.559 -0.947 12.652 C-1.233 13.757 -1.518 14.862 -1.812 16 C-4.428 26.252 -6.812 36.479 -7.562 47.062 C-7.775 50.01 -8.058 52.174 -9 55 C-11.97 55 -14.94 55 -18 55 C-18.065 54.338 -18.129 53.676 -18.196 52.994 C-19.564 39.34 -21.366 25.965 -24.374 12.568 C-24.584 11.631 -24.795 10.693 -25.012 9.727 C-25.202 8.908 -25.392 8.088 -25.589 7.245 C-26 5 -26 5 -26 1 C-18.25 0.875 -18.25 0.875 -16 2 C-15.373 4.165 -14.846 6.359 -14.375 8.562 C-14.115 9.76 -13.854 10.958 -13.586 12.191 C-13.393 13.118 -13.199 14.045 -13 15 C-12.01 11.37 -11.02 7.74 -10 4 C-9.34 4 -8.68 4 -8 4 C-8 3.01 -8 2.02 -8 1 C-5.36 0.67 -2.72 0.34 0 0 Z " fill="#8811FC" transform="translate(244,312)"/>
<path d="M0 0 C3.535 -0.717 6.48 -0.867 10 0 C13.521 3.127 15.677 6.937 18 11 C18.623 12.076 19.245 13.153 19.887 14.262 C25.624 24.654 30.654 35.441 35.681 46.189 C36.6 48.148 37.534 50.099 38.479 52.045 C39.18 53.515 39.18 53.515 39.895 55.016 C40.322 55.9 40.75 56.785 41.191 57.696 C42 60 42 60 41 63 C41 62.34 41 61.68 41 61 C40.42 61.116 39.84 61.232 39.242 61.352 C36.593 61.658 34.596 61.639 32 61 C29.07 58.244 27.671 54.61 26 51 C25.279 49.477 24.556 47.955 23.832 46.434 C22.585 43.806 21.341 41.176 20.107 38.542 C16.832 31.592 13.309 24.805 9.625 18.062 C9.125 17.146 8.626 16.229 8.111 15.284 C6.076 11.594 4.038 7.969 1.648 4.496 C0 2 0 2 0 0 Z " fill="#D7999E" transform="translate(151,153)"/>
<path d="M0 0 C28.38 0 56.76 0 86 0 C86 1.98 86 3.96 86 6 C56.96 6 27.92 6 -2 6 C-1.34 4.02 -0.68 2.04 0 0 Z " fill="#B082C1" transform="translate(279,225)"/>
<path d="M0 0 C28.38 0 56.76 0 86 0 C86.99 2.97 86.99 2.97 88 6 C58.96 6 29.92 6 0 6 C0 4.02 0 2.04 0 0 Z " fill="#B082C1" transform="translate(98,225)"/>
<path d="M0 0 C0.99 0.495 0.99 0.495 2 1 C2 1.66 2 2.32 2 3 C4.97 3 7.94 3 11 3 C16.739 13.415 21.242 24.253 25.562 35.312 C25.84 36.013 26.117 36.713 26.402 37.435 C27.197 39.449 27.978 41.467 28.754 43.488 C29.439 45.26 29.439 45.26 30.139 47.068 C31 50 31 50 30 53 C29.67 51.68 29.34 50.36 29 49 C26.36 49 23.72 49 21 49 C20.67 49.66 20.34 50.32 20 51 C19.714 50.262 19.428 49.524 19.133 48.763 C17.78 45.278 16.423 41.795 15.062 38.312 C14.817 37.683 14.571 37.053 14.317 36.404 C10.61 26.928 6.751 17.535 2.643 8.224 C2.293 7.426 1.943 6.627 1.582 5.805 C1.121 4.768 1.121 4.768 0.652 3.71 C0 2 0 2 0 0 Z " fill="#B082C0" transform="translate(181,211)"/>
<path d="M0 0 C0.33 0.66 0.66 1.32 1 2 C0.148 4.511 -0.773 6.915 -1.789 9.359 C-2.24 10.471 -2.24 10.471 -2.699 11.604 C-3.667 13.989 -4.645 16.37 -5.625 18.75 C-6.892 21.847 -8.154 24.947 -9.414 28.047 C-9.723 28.803 -10.031 29.558 -10.349 30.337 C-12.773 36.317 -14.93 42.361 -16.97 48.481 C-18 51 -18 51 -20 52 C-19.67 50.68 -19.34 49.36 -19 48 C-21.64 48 -24.28 48 -27 48 C-27.33 48.66 -27.66 49.32 -28 50 C-26.584 42.082 -23.815 34.805 -20.887 27.351 C-20.06 25.244 -19.245 23.132 -18.432 21.02 C-15.788 14.223 -13.054 8.081 -9 2 C-7.09 1.523 -7.09 1.523 -4.938 1.375 C-1.231 1.444 -1.231 1.444 0 0 Z " fill="#B082C0" transform="translate(280,212)"/>
<path d="M0 0 C18.333 0 18.333 0 23 4 C25.544 8.179 25.836 12.226 25 17 C23.589 19.482 22.081 20.969 20 23 C19.34 23.66 18.68 24.32 18 25 C18.433 25.554 18.866 26.109 19.312 26.68 C19.869 27.404 20.426 28.129 21 28.875 C21.557 29.594 22.114 30.314 22.688 31.055 C24 33 24 33 24 35 C21.711 35.277 21.711 35.277 19 35 C17.227 33.066 17.227 33.066 15.625 30.562 C13.343 27.219 13.343 27.219 9.996 25.18 C7.881 24.867 7.881 24.867 5 25 C5 28.3 5 31.6 5 35 C3.35 35 1.7 35 0 35 C0 23.45 0 11.9 0 0 Z M5 3 C5 9.27 5 15.54 5 22 C12.51 22.151 12.51 22.151 18.613 18.703 C20.824 15.988 20.471 13.54 20.355 10.16 C20.127 7.797 20.127 7.797 18.25 5.5 C13.625 2.416 10.903 3 5 3 Z " fill="#FFFFFF" transform="translate(228,403)"/>
<path d="M0 0 C1.65 0 3.3 0 5 0 C5.015 0.802 5.029 1.604 5.044 2.431 C5.119 6.059 5.215 9.685 5.312 13.312 C5.335 14.575 5.358 15.838 5.381 17.139 C5.416 18.347 5.452 19.556 5.488 20.801 C5.514 21.916 5.541 23.032 5.568 24.181 C5.779 26.987 5.779 26.987 7.321 28.833 C10.126 30.783 12.639 30.884 16 31 C18.948 29.654 20.543 28.914 22 26 C22.154 24.042 22.25 22.08 22.316 20.117 C22.358 18.951 22.4 17.784 22.443 16.582 C22.483 15.359 22.522 14.135 22.562 12.875 C22.606 11.644 22.649 10.413 22.693 9.145 C22.8 6.096 22.902 3.048 23 0 C24.32 0 25.64 0 27 0 C27.146 4.541 27.234 9.082 27.312 13.625 C27.354 14.91 27.396 16.195 27.439 17.52 C27.578 28.186 27.578 28.186 24.668 31.836 C20.231 35.435 16.242 35.336 10.734 35.285 C6.917 34.887 4.796 33.581 2 31 C-0.23 27.584 -0.233 24.728 -0.195 20.703 C-0.189 19.498 -0.182 18.293 -0.176 17.051 C-0.151 15.169 -0.151 15.169 -0.125 13.25 C-0.116 11.98 -0.107 10.711 -0.098 9.402 C-0.074 6.268 -0.041 3.134 0 0 Z " fill="#FFFFFF" transform="translate(257,403)"/>
<path d="M0 0 C2.184 1.105 2.184 1.105 5.434 3.105 C5.434 4.425 5.434 5.745 5.434 7.105 C2.199 7.105 1.467 6.657 -1.191 5.043 C-6.864 2.086 -11.552 3.336 -17.504 4.855 C-20.359 6.586 -20.727 7.888 -21.566 11.105 C-22.548 15.317 -22.878 18.205 -21.441 22.355 C-18.947 26.014 -16.883 28.47 -12.488 29.676 C-5.831 30.74 -2.089 29.01 3.746 25.855 C4.303 25.608 4.86 25.36 5.434 25.105 C6.094 25.435 6.754 25.765 7.434 26.105 C6.038 29.479 4.51 31.148 1.434 33.105 C-4.956 35.235 -12.966 35.302 -19.129 32.418 C-23.402 29.876 -25.987 26.843 -27.566 22.105 C-28.261 14.956 -28.028 9.859 -23.566 4.105 C-16.692 -1.226 -8.401 -2.928 0 0 Z " fill="#FFFFFF" transform="translate(184.56640625,403.89453125)"/>
<path d="M0 0 C3.194 2.663 4.66 6.086 6.355 9.785 C6.662 10.442 6.968 11.099 7.284 11.776 C7.929 13.16 8.57 14.546 9.208 15.934 C10.187 18.062 11.178 20.185 12.17 22.307 C12.795 23.653 13.419 25 14.043 26.348 C14.34 26.984 14.637 27.621 14.942 28.276 C17 32.768 17 32.768 17 35 C15.35 35 13.7 35 12 35 C11.01 33.02 10.02 31.04 9 29 C3.39 29 -2.22 29 -8 29 C-8.99 30.98 -9.98 32.96 -11 35 C-12.65 35 -14.3 35 -16 35 C-12.796 27.007 -9.304 19.154 -5.75 11.312 C-5.302 10.32 -4.853 9.327 -4.391 8.304 C-3.968 7.375 -3.545 6.446 -3.109 5.488 C-2.727 4.648 -2.346 3.808 -1.952 2.943 C-1 1 -1 1 0 0 Z M0 9 C-1.007 11.101 -2.005 13.206 -3 15.312 C-3.557 16.484 -4.114 17.656 -4.688 18.863 C-6.193 21.895 -6.193 21.895 -6 25 C-1.38 25 3.24 25 8 25 C5.69 19.72 3.38 14.44 1 9 C0.67 9 0.34 9 0 9 Z " fill="#FFFFFF" transform="translate(208,403)"/>
<path d="M0 0 C2.531 1.073 3.911 2.131 6 4 C6 4.66 6 5.32 6 6 C4.312 6.688 4.312 6.688 2 7 C1.216 6.505 0.433 6.01 -0.375 5.5 C-3.702 3.599 -5.372 4.072 -9 5 C-9.864 6.781 -9.864 6.781 -10 9 C-7.114 12.512 -3.962 14.18 0.125 16.062 C5.779 18.668 5.779 18.668 8 22 C8.678 29.119 8.678 29.119 6.125 32.438 C1.208 36.053 -4.083 35.563 -10 35 C-12.764 34.003 -13.835 33.106 -16 31 C-16.875 28.75 -16.875 28.75 -17 27 C-15.25 26.25 -15.25 26.25 -13 26 C-12.402 26.619 -11.804 27.238 -11.188 27.875 C-8.196 30.781 -6.116 30.928 -2 31 C1.002 30.134 1.002 30.134 3 28 C3.417 24.874 3.417 24.874 3 22 C2.281 21.719 1.561 21.438 0.82 21.148 C-1.875 20.051 -4.502 18.884 -7.125 17.625 C-7.973 17.225 -8.821 16.826 -9.695 16.414 C-12.213 14.869 -13.473 13.513 -15 11 C-15.673 7.046 -15.328 5.503 -13.125 2.125 C-8.749 -0.851 -5.148 -0.911 0 0 Z " fill="#FFFFFF" transform="translate(305,403)"/>
<path d="M0 0 C0.33 0.66 0.66 1.32 1 2 C1.557 1.849 2.114 1.698 2.688 1.543 C5.533 1.106 7.245 1.094 10 2 C13.428 5.949 15.683 10.35 18 15 C18.469 15.911 18.938 16.823 19.422 17.762 C22.177 23.47 22.177 23.47 21 27 C21 26.34 21 25.68 21 25 C20.13 25.174 20.13 25.174 19.242 25.352 C16.57 25.66 14.612 25.678 12 25 C9.216 22.083 7.706 18.623 6 15 C5.439 13.934 4.879 12.868 4.301 11.77 C0 3.539 0 3.539 0 0 Z " fill="#C08DB2" transform="translate(171,189)"/>
<path d="M0 0 C2.97 0 5.94 0 9 0 C8.374 4.902 6.282 8.847 4.062 13.188 C3.522 14.273 3.522 14.273 2.971 15.381 C0.268 20.732 0.268 20.732 -2 23 C-4.164 23.414 -4.164 23.414 -6.625 23.625 C-7.442 23.7 -8.26 23.775 -9.102 23.852 C-9.728 23.901 -10.355 23.95 -11 24 C-9.015 15.028 -4.71 7.763 0 0 Z " fill="#C08DB2" transform="translate(281,191)"/>
<path d="M0 0 C0.33 0.66 0.66 1.32 1 2 C3.97 2 6.94 2 10 2 C10 2.66 10 3.32 10 4 C10.66 4 11.32 4 12 4 C13.032 6.6 14.051 9.204 15.062 11.812 C15.357 12.55 15.652 13.288 15.955 14.049 C18.113 19.66 18.113 19.66 17 23 C16.67 21.68 16.34 20.36 16 19 C13.36 19 10.72 19 8 19 C7.67 19.66 7.34 20.32 7 21 C5.825 18.066 4.661 15.127 3.5 12.188 C3.166 11.354 2.832 10.521 2.488 9.662 C2.172 8.86 1.857 8.057 1.531 7.23 C1.238 6.492 0.945 5.754 0.643 4.993 C0 3 0 3 0 0 Z " fill="#9C75CE" transform="translate(194,241)"/>
<path d="M0 0 C1.147 3.442 0.85 4.128 -0.363 7.414 C-0.673 8.257 -0.983 9.1 -1.303 9.969 C-1.636 10.845 -1.969 11.722 -2.312 12.625 C-2.634 13.509 -2.956 14.394 -3.287 15.305 C-5.739 21.869 -5.739 21.869 -8 23 C-7.67 21.68 -7.34 20.36 -7 19 C-9.64 19 -12.28 19 -15 19 C-15.33 19.66 -15.66 20.32 -16 21 C-14.693 14.249 -12.678 8.337 -10 2 C-6.7 2 -3.4 2 0 2 C0 1.34 0 0.68 0 0 Z " fill="#9C75CE" transform="translate(268,241)"/>
<path d="M0 0 C1.65 0 3.3 0 5 0 C5 11.55 5 23.1 5 35 C3.35 35 1.7 35 0 35 C0 23.45 0 11.9 0 0 Z " fill="#FFFFFF" transform="translate(148,403)"/>
<path d="M0 0 C1.32 0 2.64 0 4 0 C5.75 2.5 5.75 2.5 7 5 C3.37 5 -0.26 5 -4 5 C-2.25 2.5 -2.25 2.5 0 0 Z " fill="#F49E73" transform="translate(138,123)"/>
<path d="M0 0 C3.796 0.542 5.472 2.201 8 5 C4.37 5 0.74 5 -3 5 C-2.01 3.35 -1.02 1.7 0 0 Z " fill="#F49E73" transform="translate(317,123)"/>
</svg>