
<!-- Generator: visioncortex VTracer 0.6.4 -->
<svg version="1.1" xmlns="http://www.w3.org/2000/svg" viewBox="0 0 225 225" preserveAspectRatio="xMidYMid meet">
<path d="M0 0 C74.25 0 148.5 0 225 0 C225 74.25 225 148.5 225 225 C150.75 225 76.5 225 0 225 C0 150.75 0 76.5 0 0 Z " fill="#4C912B" transform="translate(0,0)"/>
<path d="M0 0 C0.956 0.42 1.912 0.839 2.896 1.271 C36.155 15.667 83.5 17.842 117.531 4.629 C119.363 3.778 121.18 2.893 122.969 1.953 C125 1 125 1 128 1 C127.419 11.904 126.038 22.584 124.438 33.375 C124.201 34.997 123.964 36.62 123.729 38.242 C123.158 42.162 122.581 46.081 122 50 C118.366 49.465 115.079 48.807 111.672 47.434 C110.881 47.117 110.089 46.8 109.274 46.473 C108.025 45.961 108.025 45.961 106.75 45.438 C105.443 44.908 105.443 44.908 104.111 44.368 C95.973 41.045 87.932 37.51 79.937 33.856 C78.634 33.28 77.318 32.733 75.991 32.214 C71.114 30.296 70.301 28.602 68 24 C65.109 22.671 65.109 22.671 62 23 C59.5 24.5 59.5 24.5 58 27 C57.416 29.543 57.416 29.543 58 32 C59.188 33.746 59.188 33.746 61 35 C63.182 35.175 63.182 35.175 65.562 34.875 C70.639 34.744 73.543 35.95 77.926 38.379 C81.898 40.474 85.984 42.205 90.125 43.938 C90.94 44.279 91.756 44.621 92.596 44.973 C99.234 47.73 105.932 50.299 112.68 52.773 C115.473 53.805 118.242 54.878 121 56 C119.858 64.478 119.858 64.478 119.341 68.171 C118.533 73.96 117.79 79.749 117.121 85.555 C116.81 88.078 116.499 90.602 116.188 93.125 C116.059 94.34 115.93 95.554 115.798 96.806 C114.715 105.259 114.715 105.259 111.457 108.637 C107.187 110.321 102.959 111.609 98.5 112.688 C97.671 112.9 96.842 113.112 95.988 113.33 C88.959 115.101 82.303 116.157 75.031 116.168 C74.274 116.171 73.517 116.175 72.736 116.178 C71.136 116.183 69.536 116.185 67.936 116.185 C65.535 116.187 63.135 116.206 60.734 116.225 C48.951 116.268 37.33 115.695 26 112.125 C24.484 111.665 24.484 111.665 22.938 111.195 C19.476 109.787 16.908 108.371 14 106 C13.109 103.373 12.66 101.419 12.357 98.722 C12.253 97.995 12.15 97.267 12.044 96.517 C11.708 94.107 11.41 91.693 11.113 89.277 C10.885 87.576 10.654 85.875 10.421 84.175 C9.811 79.679 9.234 75.179 8.664 70.678 C8.09 66.202 7.484 61.731 6.881 57.26 C4.328 38.202 1.998 19.125 0 0 Z " fill="#418724" transform="translate(44,69)"/>
<path d="M0 0 C0.99 0 1.98 0 3 0 C3 2.64 3 5.28 3 8 C5.64 8 8.28 8 11 8 C11 10.64 11 13.28 11 16 C13.64 16 16.28 16 19 16 C19 18.64 19 21.28 19 24 C21.64 24 24.28 24 27 24 C27 26.64 27 29.28 27 32 C29.64 32 32.28 32 35 32 C35 34.64 35 37.28 35 40 C37.64 40 40.28 40 43 40 C43.33 37.36 43.66 34.72 44 32 C46.087 35.131 46.375 36.487 46.79 40.126 C46.914 41.171 47.038 42.216 47.166 43.292 C47.356 44.985 47.356 44.985 47.551 46.711 C47.84 49.094 48.129 51.477 48.42 53.859 C48.87 57.62 49.313 61.381 49.742 65.144 C50.159 68.773 50.603 72.398 51.051 76.023 C51.232 77.71 51.232 77.71 51.418 79.43 C52.1 85.881 52.1 85.881 55.508 91.17 C70.849 102.437 92.72 102.402 111 104 C110.67 106.64 110.34 109.28 110 112 C111.65 112 113.3 112 115 112 C115 114.64 115 117.28 115 120 C117.64 120 120.28 120 123 120 C123 122.64 123 125.28 123 128 C125.64 128 128.28 128 131 128 C131 130.64 131 133.28 131 136 C133.64 136 136.28 136 139 136 C139 136.33 139 136.66 139 137 C93.13 137 47.26 137 0 137 C0 91.79 0 46.58 0 0 Z " fill="#2E781A" transform="translate(0,88)"/>
<path d="M0 0 C2.585 0.003 5.168 -0.02 7.752 -0.046 C29.967 -0.13 55.712 2.88 72.918 18.316 C76.439 23.597 75.101 29.701 74.031 35.691 C72.568 44.205 71.469 52.767 70.33 61.329 C70.162 62.574 69.994 63.819 69.821 65.101 C69.671 66.224 69.521 67.347 69.367 68.503 C68.918 71.316 68.918 71.316 67.918 74.316 C68.743 74.501 69.568 74.687 70.418 74.878 C75.123 76.811 78.559 79.502 81.918 83.316 C83.106 86.503 83.106 86.503 82.918 89.316 C81.206 92.483 80.381 93.161 76.918 94.316 C72.724 94.471 69.008 94.201 64.918 93.316 C64.873 93.962 64.827 94.609 64.781 95.275 C64.104 104.138 63.072 112.942 61.926 121.754 C61.711 123.432 61.503 125.11 61.301 126.79 C61.006 129.247 60.689 131.701 60.367 134.156 C60.282 134.901 60.196 135.647 60.108 136.416 C59.458 141.142 58.264 143.912 54.918 147.316 C48.611 151.566 41.287 153.724 33.918 155.316 C33.208 155.485 32.498 155.654 31.767 155.828 C22.741 157.762 13.73 157.711 4.543 157.691 C3.701 157.691 2.86 157.691 1.993 157.691 C-38.393 157.608 -38.393 157.608 -51.082 145.316 C-53.381 141.866 -53.622 139.747 -54.163 135.658 C-54.3 134.647 -54.3 134.647 -54.44 133.616 C-54.742 131.375 -55.033 129.132 -55.324 126.89 C-55.535 125.307 -55.747 123.724 -55.959 122.141 C-56.52 117.947 -57.072 113.751 -57.622 109.555 C-58.167 105.406 -58.72 101.258 -59.273 97.111 C-60.137 90.625 -60.996 84.14 -61.85 77.653 C-63.006 68.88 -64.171 60.107 -65.34 51.335 C-65.502 50.112 -65.665 48.889 -65.832 47.629 C-66.683 41.249 -67.557 34.875 -68.496 28.507 C-68.822 24.438 -68.878 21.51 -66.566 18.042 C-57.003 8.798 -42.817 4.903 -30.082 2.316 C-29.202 2.137 -28.322 1.958 -27.415 1.774 C-18.271 0.14 -9.258 -0.023 0 0 Z M-61.082 35.316 C-59.215 54.645 -56.523 73.839 -53.703 93.049 C-52.34 102.356 -50.994 111.654 -49.949 121.003 C-49.786 122.414 -49.622 123.825 -49.458 125.236 C-49.175 127.751 -48.912 130.268 -48.676 132.788 C-48.064 139.083 -48.064 139.083 -44.336 143.945 C-41.258 145.241 -38.278 146.47 -35.082 147.441 C-34.092 147.753 -33.102 148.065 -32.082 148.386 C-20.342 151.371 -8.427 151.719 3.606 151.691 C4.395 151.691 5.185 151.691 5.999 151.691 C22.398 151.655 38.837 150.703 52.918 141.316 C53.597 138.333 54.092 135.491 54.489 132.468 C54.615 131.582 54.742 130.696 54.872 129.784 C55.275 126.942 55.659 124.098 56.043 121.253 C56.309 119.363 56.576 117.473 56.844 115.583 C57.98 107.504 59.045 99.428 59.918 91.316 C58.847 90.919 57.776 90.522 56.672 90.113 C51.04 87.999 45.446 85.79 39.856 83.566 C38.752 83.127 37.648 82.688 36.511 82.236 C29.163 79.287 21.989 76.13 14.906 72.593 C10.781 70.829 7.197 70.266 2.731 70.441 C-0.082 70.316 -0.082 70.316 -2.019 69.253 C-3.748 66.1 -2.941 63.691 -2.082 60.316 C0.918 58.316 0.918 58.316 3.918 58.316 C5.403 58.811 5.403 58.811 6.918 59.316 C7.291 60.236 7.663 61.156 8.047 62.105 C10.717 66.687 14.07 67.735 18.856 69.691 C19.736 70.068 20.616 70.445 21.523 70.834 C24.312 72.019 27.112 73.172 29.918 74.316 C30.832 74.691 31.745 75.066 32.686 75.452 C38.409 77.795 44.152 80.082 49.918 82.316 C50.66 82.61 51.402 82.904 52.166 83.207 C55.221 84.398 57.61 85.316 60.918 85.316 C61.779 79.463 62.633 73.61 63.482 67.756 C63.771 65.766 64.062 63.777 64.355 61.788 C64.776 58.922 65.192 56.054 65.606 53.187 C65.803 51.863 65.803 51.863 66.003 50.512 C66.688 45.723 67.056 41.154 66.918 36.316 C63.594 37.024 60.715 38.269 57.606 39.628 C44.421 44.774 29.028 46.922 14.918 47.316 C13.712 47.354 13.712 47.354 12.482 47.394 C-12.522 48.099 -38.181 46.094 -61.082 35.316 Z " fill="#F0F7EF" transform="translate(105.081787109375,33.684326171875)"/>
<path d="M0 0 C1.336 0.003 1.336 0.003 2.698 0.006 C52.49 0.178 52.49 0.178 68.625 16.312 C68.875 19.062 68.875 19.062 67.625 22.312 C50.108 38.263 16.367 36.789 -5.375 36.312 C-6.08 36.3 -6.785 36.287 -7.511 36.274 C-24.384 35.903 -46.232 34.382 -60.125 23.75 C-62.362 21.327 -62.775 20.4 -63.375 17.312 C-62.385 16.385 -61.382 15.471 -60.375 14.562 C-59.818 14.052 -59.261 13.542 -58.688 13.016 C-52.883 8.741 -46.471 6.512 -39.562 4.688 C-38.832 4.484 -38.102 4.28 -37.35 4.07 C-35.033 3.441 -32.71 2.867 -30.375 2.312 C-29.602 2.121 -28.828 1.929 -28.031 1.731 C-18.785 -0.277 -9.413 -0.04 0 0 Z " fill="#4D922C" transform="translate(105.375,39.6875)"/>
<path d="M0 0 C0.99 0 1.98 0 3 0 C3 2.64 3 5.28 3 8 C5.64 8 8.28 8 11 8 C11 10.64 11 13.28 11 16 C12.65 16 14.3 16 16 16 C16 18.64 16 21.28 16 24 C19.63 24 23.26 24 27 24 C27 26.64 27 29.28 27 32 C29.64 32 32.28 32 35 32 C35 34.64 35 37.28 35 40 C37.64 40 40.28 40 43 40 C43 42.64 43 45.28 43 48 C45.64 48 48.28 48 51 48 C51 50.64 51 53.28 51 56 C52.65 56 54.3 56 56 56 C56 58.64 56 61.28 56 64 C58.64 64 61.28 64 64 64 C64 66.64 64 69.28 64 72 C67.63 72 71.26 72 75 72 C75 74.64 75 77.28 75 80 C76.485 80.495 76.485 80.495 78 81 C52.26 81 26.52 81 0 81 C0 54.27 0 27.54 0 0 Z " fill="#256E14" transform="translate(0,144)"/>
<path d="M0 0 C1.065 3.196 1.074 5.657 1 9 C0.34 9 -0.32 9 -1 9 C-1.098 2.848 -1.098 2.848 -1 1 C-0.67 0.67 -0.34 0.34 0 0 Z M1 9 C2 12 2 12 2 15 C2.99 15.33 3.98 15.66 5 16 C5 18.64 5 21.28 5 24 C7.64 24 10.28 24 13 24 C13 26.64 13 29.28 13 32 C15.64 32 18.28 32 21 32 C21 34.64 21 37.28 21 40 C23.64 40 26.28 40 29 40 C29 42.64 29 45.28 29 48 C30.547 47.845 30.547 47.845 32.125 47.688 C37.21 48.098 38.532 49.363 42 53 C42 53.99 42 54.98 42 56 C50.91 56 59.82 56 69 56 C69 56.33 69 56.66 69 57 C64.699 57.05 60.398 57.086 56.097 57.11 C54.641 57.12 53.184 57.133 51.728 57.151 C39.626 57.293 27.641 56.793 16 53.125 C14.989 52.818 13.979 52.511 12.938 52.195 C9.492 50.793 6.904 49.344 4 47 C2.952 43.887 2.952 43.887 2.539 40.258 C2.419 39.289 2.419 39.289 2.296 38.3 C2.047 36.244 1.836 34.186 1.625 32.125 C1.462 30.748 1.297 29.372 1.129 27.996 C-0.709 12.418 -0.709 12.418 1 9 Z " fill="#2F781B" transform="translate(54,128)"/>
<path d="M0 0 C2.95 1.37 5.565 2.826 8 5 C8 5.99 8 6.98 8 8 C16.91 8 25.82 8 35 8 C35 8.33 35 8.66 35 9 C30.553 9.025 26.105 9.043 21.658 9.055 C20.147 9.06 18.636 9.067 17.125 9.075 C14.945 9.088 12.766 9.093 10.586 9.098 C8.622 9.106 8.622 9.106 6.619 9.114 C3.31 9.01 0.244 8.634 -3 8 C-2.01 6.35 -1.02 4.7 0 3 C-0.99 2.67 -1.98 2.34 -3 2 C-2.01 2 -1.02 2 0 2 C0 1.34 0 0.68 0 0 Z " fill="#2C7518" transform="translate(88,176)"/>
<path d="M0 0 C1.065 3.196 1.074 5.657 1 9 C0.34 9 -0.32 9 -1 9 C-1.098 2.848 -1.098 2.848 -1 1 C-0.67 0.67 -0.34 0.34 0 0 Z M1 9 C2 12 2 12 2 15 C2.99 15.33 3.98 15.66 5 16 C5 18.64 5 21.28 5 24 C5.66 24.33 6.32 24.66 7 25 C6.34 25.33 5.68 25.66 5 26 C4.278 27.644 3.606 29.311 3 31 C2.67 31 2.34 31 2 31 C1.661 28.792 1.329 26.584 1 24.375 C0.814 23.145 0.629 21.915 0.438 20.648 C-0.58 12.161 -0.58 12.161 1 9 Z " fill="#2C7518" transform="translate(54,128)"/>
<path d="M0 0 C3.987 1.367 6.885 3.152 10 6 C10 6.66 10 7.32 10 8 C6.37 7.67 2.74 7.34 -1 7 C-0.67 4.69 -0.34 2.38 0 0 Z " fill="#5D9A40" transform="translate(172,114)"/>
<path d="M0 0 C0.33 0.66 0.66 1.32 1 2 C1.99 2 2.98 2 4 2 C3.67 5.63 3.34 9.26 3 13 C1.68 12.67 0.36 12.34 -1 12 C-1.027 10.188 -1.046 8.375 -1.062 6.562 C-1.074 5.553 -1.086 4.544 -1.098 3.504 C-1 1 -1 1 0 0 Z " fill="#387F1F" transform="translate(43,129)"/>
<path d="M0 0 C0.99 0.495 0.99 0.495 2 1 C1.01 1.495 1.01 1.495 0 2 C0 1.34 0 0.68 0 0 Z M4 2 C4.99 2.33 5.98 2.66 7 3 C6.67 3.66 6.34 4.32 6 5 C5.34 5 4.68 5 4 5 C3.67 5.99 3.34 6.98 3 8 C2.34 8 1.68 8 1 8 C2.875 3.125 2.875 3.125 4 2 Z " fill="#277015" transform="translate(48,176)"/>
<path d="M0 0 C2.64 0.33 5.28 0.66 8 1 C8 2.32 8 3.64 8 5 C5.36 4.34 2.72 3.68 0 3 C0 2.01 0 1.02 0 0 Z " fill="#387F1F" transform="translate(80,178)"/>
<path d="M0 0 C0.99 0 1.98 0 3 0 C2.34 3.3 1.68 6.6 1 10 C0.67 10 0.34 10 0 10 C-0.194 8.522 -0.38 7.042 -0.562 5.562 C-0.667 4.739 -0.771 3.915 -0.879 3.066 C-0.919 2.384 -0.959 1.703 -1 1 C-0.67 0.67 -0.34 0.34 0 0 Z " fill="#367E21" transform="translate(44,131)"/>
<path d="M0 0 C2.31 0.66 4.62 1.32 7 2 C7 2.99 7 3.98 7 5 C6.01 5 5.02 5 4 5 C4 4.34 4 3.68 4 3 C3.01 3.33 2.02 3.66 1 4 C0.67 2.68 0.34 1.36 0 0 Z " fill="#387D22" transform="translate(62,184)"/>
<path d="M0 0 C2.475 0.99 2.475 0.99 5 2 C1.125 5 1.125 5 0 5 C0 3.35 0 1.7 0 0 Z " fill="#468C27" transform="translate(172,114)"/>
<path d="M0 0 C0 0.99 0 1.98 0 3 C-1.65 3.66 -3.3 4.32 -5 5 C-4.625 3.062 -4.625 3.062 -4 1 C-2 0 -2 0 0 0 Z " fill="#5C9B3D" transform="translate(167,72)"/>
<path d="M0 0 C0.66 0.33 1.32 0.66 2 1 C1.67 2.32 1.34 3.64 1 5 C0.34 5 -0.32 5 -1 5 C-0.67 3.35 -0.34 1.7 0 0 Z " fill="#398120" transform="translate(161,179)"/>
<path d="M0 0 C0.66 0.33 1.32 0.66 2 1 C1.67 1.99 1.34 2.98 1 4 C0.34 4 -0.32 4 -1 4 C-0.67 2.68 -0.34 1.36 0 0 Z M-3 1 C-2.01 1.495 -2.01 1.495 -1 2 C-1.99 2.495 -1.99 2.495 -3 3 C-3 2.34 -3 1.68 -3 1 Z " fill="#3C8321" transform="translate(103,89)"/>
<path d="M0 0 C0.66 0 1.32 0 2 0 C1.34 1.98 0.68 3.96 0 6 C-0.66 5.01 -1.32 4.02 -2 3 C-1.34 2.01 -0.68 1.02 0 0 Z " fill="#3C8321" transform="translate(36,52)"/>
<path d="M0 0 C1.32 0.33 2.64 0.66 4 1 C3.67 1.66 3.34 2.32 3 3 C2.01 2.67 1.02 2.34 0 2 C0 1.34 0 0.68 0 0 Z " fill="#357A21" transform="translate(55,181)"/>
<path d="M0 0 C0.99 0 1.98 0 3 0 C3 0.99 3 1.98 3 3 C1.68 2.67 0.36 2.34 -1 2 C-0.67 1.34 -0.34 0.68 0 0 Z " fill="#418626" transform="translate(54,65)"/>
<path d="M0 0 C0.99 0.33 1.98 0.66 3 1 C3 1.66 3 2.32 3 3 C1.68 2.34 0.36 1.68 -1 1 C-0.67 0.67 -0.34 0.34 0 0 Z " fill="#DDF1D8" transform="translate(180,112)"/>
<path d="M0 0 C0.66 0.66 1.32 1.32 2 2 C1.01 2 0.02 2 -1 2 C-0.67 1.34 -0.34 0.68 0 0 Z " fill="#D9EED3" transform="translate(43,53)"/>
<path d="M0 0 C0.66 0.66 1.32 1.32 2 2 C1.01 2 0.02 2 -1 2 C-0.67 1.34 -0.34 0.68 0 0 Z " fill="#56933B" transform="translate(38,50)"/>
</svg>