<svg version="1.1" xmlns="http://www.w3.org/2000/svg" viewBox="0 0 225 225" preserveAspectRatio="xMidYMid meet" xmlns:xlink="http://www.w3.org/1999/xlink">
<path d="M0 0 C74.25 0 148.5 0 225 0 C225 74.25 225 148.5 225 225 C150.75 225 76.5 225 0 225 C0 150.75 0 76.5 0 0 Z " fill="#FEFEFE" transform="translate(0,0)" class=""></path>
<path d="M0 0 C2.715 1.938 5.311 3.959 7.887 6.078 C8.603 6.632 9.32 7.187 10.059 7.758 C20.317 16.068 27.732 28.615 31.887 41.078 C33.189 41.104 34.491 41.13 35.832 41.156 C37.559 41.213 39.285 41.27 41.012 41.328 C41.868 41.342 42.724 41.356 43.605 41.371 C49.143 41.584 52.522 42.352 56.887 46.078 C60.038 50.805 59.259 55.857 59.257 61.42 C59.262 63.44 59.298 65.457 59.336 67.477 C59.34 68.755 59.344 70.034 59.348 71.352 C59.356 72.521 59.364 73.691 59.373 74.896 C58.783 78.758 57.639 80.347 54.887 83.078 C52.034 84.945 49.717 85.355 46.34 85.492 C45.496 85.531 44.651 85.57 43.781 85.609 C42.909 85.64 42.036 85.671 41.137 85.703 C40.249 85.742 39.36 85.78 38.445 85.82 C36.259 85.914 34.073 86 31.887 86.078 C31.558 86.987 31.558 86.987 31.223 87.914 C23.665 107.882 9.905 122.927 -9.41 131.902 C-10.302 132.29 -11.194 132.678 -12.113 133.078 C-13.173 133.552 -13.173 133.552 -14.254 134.035 C-30.128 140.585 -50.158 140.141 -66.113 134.078 C-86.282 125.581 -101.483 110.134 -110.113 90.078 C-110.113 88.758 -110.113 87.438 -110.113 86.078 C-111.404 86.136 -112.694 86.194 -114.023 86.254 C-115.741 86.301 -117.458 86.346 -119.176 86.391 C-120.023 86.433 -120.871 86.474 -121.744 86.518 C-127.159 86.622 -130.426 85.882 -134.736 82.552 C-139.641 77.304 -138.481 70.435 -138.488 63.703 C-138.513 62.484 -138.537 61.264 -138.562 60.008 C-138.6 48.656 -138.6 48.656 -134.113 44.078 C-129.654 40.19 -124.906 40.728 -119.301 40.891 C-117.975 40.911 -117.975 40.911 -116.623 40.932 C-114.453 40.967 -112.283 41.021 -110.113 41.078 C-109.945 39.754 -109.945 39.754 -109.773 38.402 C-106.772 23.29 -93.094 9.224 -80.859 0.852 C-72.463 -4.394 -63.633 -7.372 -54.113 -9.922 C-53.145 -10.191 -53.145 -10.191 -52.156 -10.466 C-35.015 -14.29 -14.669 -9.055 0 0 Z " fill="#0A2940" transform="translate(152.11328125,48.921875)"></path>
<path d="M0 0 C1.4 0.001 2.799 0.001 4.199 -0.002 C7.993 -0.004 11.785 0.026 15.578 0.061 C19.545 0.092 23.511 0.095 27.478 0.101 C34.986 0.116 42.494 0.157 50.002 0.208 C58.551 0.263 67.099 0.291 75.648 0.316 C93.232 0.368 110.814 0.46 128.397 0.568 C128.397 12.118 128.397 23.668 128.397 35.568 C109.969 35.68 91.541 35.773 73.113 35.827 C64.556 35.852 56 35.888 47.443 35.945 C39.986 35.995 32.528 36.027 25.07 36.038 C21.121 36.045 17.173 36.06 13.224 36.096 C9.506 36.13 5.789 36.141 2.072 36.133 C0.058 36.135 -1.956 36.162 -3.969 36.19 C-13.811 36.133 -13.811 36.133 -16.913 33.206 C-18.874 30.144 -19.246 28.406 -19.267 24.786 C-19.273 23.697 -19.28 22.608 -19.286 21.486 C-19.267 20.358 -19.248 19.23 -19.228 18.068 C-19.247 16.94 -19.266 15.812 -19.286 14.65 C-19.277 13.016 -19.277 13.016 -19.267 11.349 C-19.261 10.36 -19.256 9.37 -19.25 8.351 C-18.572 5.433 -17.715 3.686 -15.527 1.621 C-10.931 -0.895 -5.085 -0.07 0 0 Z " fill="#E6E6E6" transform="translate(36.602783203125,94.432373046875)"></path>

<path d="M0 0 C5.342 -0.103 10.684 -0.206 16.188 -0.312 C17.865 -0.358 19.542 -0.404 21.27 -0.45 C22.611 -0.465 23.952 -0.478 25.293 -0.488 C25.98 -0.514 26.667 -0.539 27.375 -0.566 C31.138 -0.569 32.883 -0.086 35.94 2.169 C38.27 5.371 38.642 6.869 38.664 10.781 C38.674 12.415 38.674 12.415 38.684 14.082 C38.664 15.21 38.645 16.338 38.625 17.5 C38.644 18.628 38.664 19.756 38.684 20.918 C38.677 22.007 38.671 23.096 38.664 24.219 C38.656 25.703 38.656 25.703 38.647 27.217 C37.731 31.156 36.235 32.613 33 35 C30.217 35.439 28.055 35.591 25.293 35.488 C24.649 35.483 24.006 35.478 23.342 35.473 C20.957 35.447 18.572 35.377 16.188 35.312 C8.175 35.158 8.175 35.158 0 35 C0 23.45 0 11.9 0 0 Z " fill="#E1E1E2" transform="translate(169,95)"></path>
<path d="M0 0 C8.91 0 17.82 0 27 0 C31 11 31 11 32 19 C21.44 19 10.88 19 0 19 C0 12.73 0 6.46 0 0 Z " fill="#3787BC" transform="translate(115,71)"></path>
<path d="M0 0 C10.56 0 21.12 0 32 0 C31.361 2.578 30.721 5.156 30.062 7.812 C29.863 8.621 29.663 9.429 29.457 10.261 C28.722 13.212 27.962 16.114 27 19 C18.09 19 9.18 19 0 19 C0 12.73 0 6.46 0 0 Z " fill="#3888BD" transform="translate(115,135)"></path>
<path d="M0 0 C10.56 0 21.12 0 32 0 C32 6.27 32 12.54 32 19 C23.09 19 14.18 19 5 19 C2.973 12.592 1.106 6.634 0 0 Z " fill="#3888BD" transform="translate(78,135)"></path>
<path d="M0 0 C8.91 0 17.82 0 27 0 C27 6.27 27 12.54 27 19 C16.44 19 5.88 19 -5 19 C-4.361 16.422 -3.721 13.844 -3.062 11.188 C-2.863 10.379 -2.663 9.571 -2.457 8.739 C-1.722 5.788 -0.962 2.886 0 0 Z " fill="#3888BD" transform="translate(83,71)"></path>
<path d="M0 0 C8.91 0 17.82 0 27 0 C26.152 5.09 25.48 7.47 23.062 11.75 C22.538 12.694 22.013 13.637 21.473 14.609 C20 17 20 17 18 19 C15.753 19.227 15.753 19.227 12.992 19.195 C12.006 19.189 11.02 19.182 10.004 19.176 C8.455 19.151 8.455 19.151 6.875 19.125 C5.835 19.116 4.794 19.107 3.723 19.098 C1.148 19.074 -1.426 19.041 -4 19 C-3.544 16.982 -3.089 14.964 -2.633 12.945 C-1.708 8.64 -0.864 4.318 0 0 Z " fill="#3787BC" transform="translate(151,135)"></path>
<path d="M0 0 C9.24 0 18.48 0 28 0 C29.32 6.27 30.64 12.54 32 19 C28.454 19.244 24.925 19.421 21.375 19.562 C20.376 19.638 19.377 19.713 18.348 19.791 C11.135 20.006 11.135 20.006 8.091 17.308 C4.33 11.933 2.468 6.169 0 0 Z " fill="#3787BC" transform="translate(46,135)"></path>
<path d="M0 0 C3.54 -0.263 7.078 -0.422 10.625 -0.562 C11.624 -0.638 12.623 -0.713 13.652 -0.791 C16.675 -0.881 19.088 -0.833 22 0 C24.742 2.663 26.351 5.58 28 9 C28.619 10.093 29.238 11.186 29.875 12.312 C31 15 31 15 31 19 C22.09 19 13.18 19 4 19 C3.01 14.854 3.01 14.854 2 10.625 C1.791 9.756 1.582 8.886 1.367 7.991 C1.205 7.305 1.042 6.62 0.875 5.914 C0.707 5.212 0.54 4.511 0.367 3.788 C0 2 0 2 0 0 Z " fill="#3787BC" transform="translate(147,71)"></path>
<path d="M0 0 C1.499 0.113 1.499 0.113 3.027 0.229 C4.05 0.269 5.072 0.31 6.125 0.352 C8.636 0.457 11.145 0.619 13.652 0.791 C12.332 7.061 11.012 13.331 9.652 19.791 C0.412 19.791 -8.828 19.791 -18.348 19.791 C-10.308 -0.307 -10.308 -0.307 0 0 Z " fill="#3787BC" transform="translate(64.34765625,70.208984375)"></path>
<path d="M0 0 C8.25 0 16.5 0 25 0 C21.271 9.323 15.505 17.654 6.812 22.938 C4 24 4 24 0 24 C0 16.08 0 8.16 0 0 Z " fill="#3584B8" transform="translate(115,158)"></path>
<path d="M0 0 C0 7.92 0 15.84 0 24 C-8.25 24 -16.5 24 -25 24 C-21.271 14.677 -15.505 6.346 -6.812 1.062 C-4 0 -4 0 0 0 Z " fill="#3684B8" transform="translate(110,43)"></path>
<path d="M0 0 C8.437 1.406 13.599 5.584 19 12 C25 20.796 25 20.796 25 24 C16.75 24 8.5 24 0 24 C0 16.08 0 8.16 0 0 Z " fill="#3584B7" transform="translate(115,43)"></path>
<path d="M0 0 C8.25 0 16.5 0 25 0 C25 7.92 25 15.84 25 24 C16.563 22.594 11.401 18.416 6 12 C0 3.204 0 3.204 0 0 Z " fill="#3684B8" transform="translate(85,158)"></path>
<path d="M0 0 C2.81 1.794 4.509 3.019 6 6 C6.394 10.181 6.45 12.309 4.125 15.875 C2 18 2 18 0 19 C-1.585 18.943 -3.168 18.855 -4.75 18.75 C-8.603 18.683 -10.666 18.98 -13.625 21.5 C-14.801 22.737 -14.801 22.737 -16 24 C-16.66 22.68 -17.32 21.36 -18 20 C-17.361 19.567 -16.721 19.134 -16.062 18.688 C-13.678 15.581 -13.727 14.38 -13.562 10.562 C-13.321 6.637 -13.134 5.208 -10.938 1.812 C-7.148 -0.525 -4.343 -0.974 0 0 Z " fill="#0A263C" transform="translate(194,101)"></path>
<path d="M0 0 C6.93 0 13.86 0 21 0 C21.99 2.31 22.98 4.62 24 7 C27.052 12.287 30.49 16.888 35 21 C34.67 21.66 34.34 22.32 34 23 C21.373 17.846 9.537 12.096 0 2 C0 1.34 0 0.68 0 0 Z " fill="#3481B4" transform="translate(60,158)"></path>
<path d="M0 0 C0 0.99 0 1.98 0 3 C-1.135 4.1 -2.273 5.197 -3.426 6.277 C-7.767 11.028 -11.442 16.769 -13 23 C-19.93 23 -26.86 23 -34 23 C-28.004 11.007 -12.221 4.074 0 0 Z " fill="#3481B4" transform="translate(94,44)"></path>
<path d="M0 0 C13.284 4.65 25.326 10.491 35 21 C35 21.66 35 22.32 35 23 C28.07 23 21.14 23 14 23 C13.01 20.69 12.02 18.38 11 16 C10.027 14.407 9.01 12.84 7.938 11.312 C6.434 9.159 5.085 7.189 4.004 4.793 C3.067 2.648 3.067 2.648 0 2 C0 1.34 0 0.68 0 0 Z " fill="#3481B4" transform="translate(130,44)"></path>
<path d="M0 0 C6.6 0 13.2 0 20 0 C10.312 11.302 0.234 17.771 -14 22 C-12.721 19.207 -11.361 17.157 -9.25 14.938 C-5.265 10.442 -2.756 5.314 0 0 Z " fill="#3684B8" transform="translate(144,159)"></path>


<path d="M0 0 C1.812 1.188 1.812 1.188 3 3 C3.433 5.889 3.425 7.351 1.812 9.812 C-0.649 11.425 -2.111 11.433 -5 11 C-6.812 9.812 -6.812 9.812 -8 8 C-8.433 5.111 -8.425 3.649 -6.812 1.188 C-4.351 -0.425 -2.889 -0.433 0 0 Z " fill="#DADBDC" transform="translate(193,105)"></path>
<path d="M0 0 C2.562 -0.25 2.562 -0.25 5 0 C6 1 6 1 6.125 4 C6 7 6 7 5 8 C3.334 8.041 1.666 8.043 0 8 C-1.125 5.688 -1.125 5.688 -2 3 C-1.34 2.01 -0.68 1.02 0 0 Z " fill="#F6F6F6" transform="translate(24,210)"></path>














<path d="M0 0 C0.33 0.99 0.66 1.98 1 3 C2.65 2.67 4.3 2.34 6 2 C5.67 2.99 5.34 3.98 5 5 C3.35 5 1.7 5 0 5 C-0.562 3.062 -0.562 3.062 -1 1 C-0.67 0.67 -0.34 0.34 0 0 Z " fill="#F6F6F6" transform="translate(15,213)"></path>


<path d="M0 0 C2.475 0.495 2.475 0.495 5 1 C4.67 1.66 4.34 2.32 4 3 C2.68 2.67 1.36 2.34 0 2 C0 1.34 0 0.68 0 0 Z " fill="#F7F7F7" transform="translate(50,215)"></path>






</svg>